<?xml version="1.0" encoding="UTF-8" standalone="no"?><!DOCTYPE svg PUBLIC "-//W3C//DTD SVG 1.1//EN" "http://www.w3.org/Graphics/SVG/1.1/DTD/svg11.dtd"><svg width="100%" height="100%" viewBox="0 0 1609 1203" version="1.1" xmlns="http://www.w3.org/2000/svg" xmlns:xlink="http://www.w3.org/1999/xlink" xml:space="preserve" xmlns:serif="http://www.serif.com/" style="fill-rule:evenodd;clip-rule:evenodd;stroke-linecap:round;stroke-linejoin:round;stroke-miterlimit:2;"><rect id="Logo-7" serif:id="Logo 7" x="-536.823" y="-617.437" width="2667.59" height="2433.57" style="fill:none;"/><g><path d="M534.598,61.187c-1.447,-1.643 -3.649,-2.407 -5.803,-2.012c-2.153,0.395 -3.942,1.89 -4.712,3.939c-21.796,57.976 -133.726,355.708 -133.726,355.708c-0,-0 -248.594,-133.721 -317.608,-170.845c-3.484,-1.875 -7.715,-1.683 -11.014,0.499c-3.3,2.182 -5.132,6.001 -4.77,9.94c26.243,282.314 80.792,558.58 162.106,829.128c373.637,107.127 740.854,119.915 1102.07,44.546c75.098,-296.17 147.405,-599.13 216.784,-909.214c0.816,-3.653 -0.589,-7.444 -3.589,-9.683c-2.999,-2.239 -7.034,-2.507 -10.304,-0.685c-74.062,41.263 -345.025,192.229 -345.025,192.229c0,-0 -89.802,-266.544 -113.316,-336.336c-1.186,-3.522 -4.122,-6.172 -7.747,-6.993c-3.625,-0.821 -7.416,0.305 -10.005,2.972c-53.803,55.439 -267.634,275.769 -267.634,275.769c-0,0 -205.288,-233.071 -245.709,-278.962Z" style="fill:#ffc43e;"/><path d="M545.542,51.548l235.284,267.127l256.65,-264.451c6.13,-6.316 15.107,-8.984 23.691,-7.039c8.584,1.944 15.536,8.219 18.346,16.56l107.717,319.717c58.303,-32.483 266.259,-148.344 329.706,-183.694c8.29,-4.618 18.52,-3.938 26.125,1.738c7.605,5.676 11.168,15.288 9.099,24.55l-0.001,0.004c-69.41,310.221 -141.749,613.314 -216.88,909.614c-1.37,5.403 -5.7,9.553 -11.157,10.692c-363.511,75.848 -733.061,63.004 -1109.07,-44.804c-4.771,-1.368 -8.518,-5.068 -9.947,-9.821c-81.593,-271.477 -136.327,-548.692 -162.661,-831.975l-0.002,-0.016c-0.853,-9.288 3.469,-18.292 11.248,-23.437c7.779,-5.146 17.757,-5.598 25.967,-1.179l302.919,162.943l127.856,-340.095c2.573,-6.842 8.545,-11.834 15.734,-13.151c7.19,-1.318 14.544,1.232 19.376,6.717Zm-10.944,9.639c-1.447,-1.643 -3.649,-2.407 -5.803,-2.012c-2.153,0.395 -3.942,1.89 -4.712,3.939l-133.726,355.708l-317.608,-170.845c-3.484,-1.875 -7.715,-1.683 -11.014,0.499c-3.3,2.182 -5.132,6.001 -4.77,9.94c26.243,282.314 80.792,558.58 162.106,829.128c373.637,107.127 740.854,119.915 1102.07,44.546c75.098,-296.17 147.405,-599.13 216.784,-909.214c0.816,-3.653 -0.589,-7.444 -3.589,-9.683c-2.999,-2.239 -7.034,-2.507 -10.304,-0.685c-74.062,41.263 -345.025,192.229 -345.025,192.229l-113.316,-336.336c-1.186,-3.522 -4.122,-6.172 -7.747,-6.993c-3.625,-0.821 -7.416,0.305 -10.005,2.972l-267.634,275.769l-245.709,-278.962Z"/><ellipse cx="56.919" cy="215.071" rx="42.336" ry="40.323" style="fill:#ffc43e;"/><path d="M56.919,160.165c31.607,-0 56.92,24.802 56.92,54.906c-0,30.103 -25.313,54.906 -56.92,54.906c-31.606,0 -56.919,-24.803 -56.919,-54.906c0,-30.104 25.313,-54.906 56.919,-54.906Zm0,14.583c-23.365,0 -42.336,18.068 -42.336,40.323c0,22.255 18.971,40.323 42.336,40.323c23.366,-0 42.337,-18.068 42.337,-40.323c-0,-22.255 -18.971,-40.323 -42.337,-40.323Z"/><ellipse cx="528.175" cy="54.906" rx="42.336" ry="40.323" style="fill:#ffc43e;"/><path d="M528.175,-0c31.607,-0 56.92,24.803 56.92,54.906c-0,30.104 -25.313,54.906 -56.92,54.906c-31.606,0 -56.919,-24.802 -56.919,-54.906c-0,-30.103 25.313,-54.906 56.919,-54.906Zm0,14.583c-23.365,0 -42.336,18.068 -42.336,40.323c0,22.255 18.971,40.323 42.336,40.323c23.366,0 42.337,-18.068 42.337,-40.323c-0,-22.255 -18.971,-40.323 -42.337,-40.323Z"/><ellipse cx="1061.78" cy="54.906" rx="42.336" ry="40.323" style="fill:#ffc43e;"/><path d="M1061.78,-0c31.607,-0 56.92,24.803 56.92,54.906c-0,30.104 -25.313,54.906 -56.92,54.906c-31.606,0 -56.919,-24.802 -56.919,-54.906c-0,-30.103 25.313,-54.906 56.919,-54.906Zm0,14.583c-23.366,0 -42.336,18.068 -42.336,40.323c0,22.255 18.97,40.323 42.336,40.323c23.366,0 42.336,-18.068 42.336,-40.323c0,-22.255 -18.97,-40.323 -42.336,-40.323Z"/><ellipse cx="1551.33" cy="200.488" rx="42.336" ry="40.323" style="fill:#ffc43e;"/><path d="M1551.33,145.581c31.607,0 56.92,24.803 56.92,54.907c-0,30.103 -25.313,54.906 -56.92,54.906c-31.606,-0 -56.919,-24.803 -56.919,-54.906c-0,-30.104 25.313,-54.907 56.919,-54.907Zm0,14.584c-23.366,-0 -42.336,18.068 -42.336,40.323c0,22.254 18.97,40.322 42.336,40.322c23.366,0 42.337,-18.068 42.337,-40.322c-0,-22.255 -18.971,-40.323 -42.337,-40.323Z"/><g><g><g transform="matrix(1.15725,0,0,1.28105,367.978,-129.803)"><g transform="matrix(148.006,0,0,177.932,-48.5298,598.637)"><path d="M-0.154,0.142c0,0 -0.025,0.001 -0.025,0.001c-0,-0 -0.031,-0.001 -0.031,-0.001c-0.016,-0.002 -0.032,-0.004 -0.049,-0.003c-0.026,0 -0.052,-0.01 -0.069,-0.031c-0.017,-0.02 -0.03,-0.042 -0.039,-0.066c-0.007,-0.02 -0.014,-0.041 -0.02,-0.061c-0.008,-0.03 -0.016,-0.06 -0.019,-0.09c-0,-0 -0.006,-0.036 -0.006,-0.036c0,-0.001 -0.011,-0.031 -0.011,-0.031c-0,-0 -0.011,-0.03 -0.011,-0.03c-0.037,-0.143 -0.074,-0.285 -0.115,-0.427c-0.004,-0.018 -0.002,-0.037 0.005,-0.054c0.006,-0.017 0.023,-0.028 0.041,-0.03c0.045,-0.004 0.091,-0.007 0.136,-0.01c0.031,0 0.061,0.001 0.092,-0.002c0.022,-0.002 0.048,-0.002 0.068,0.01c0.014,0.009 0.025,0.024 0.03,0.04c0.002,0.007 0.003,0.013 0.004,0.019c0.006,0.03 0.01,0.06 0.019,0.089c-0,0 0.037,0.145 0.037,0.145c0.005,0.019 0.008,0.038 0.012,0.058c-0.004,0.001 0,0.009 0.001,0.01c0.001,0.005 0.002,0.01 0.004,0.015c0.001,0.001 0.001,0.002 0.001,0.003c0,-0 0.007,0.036 0.007,0.036c0.003,0.021 0.006,0.042 0.011,0.062c0.001,0.005 0.008,0.021 0.009,0.026c0,-0 0.009,0.034 0.009,0.034c0.002,0.01 0.008,0.019 0.016,0.025c0.004,0.003 0.009,0.006 0.015,0.006c0.021,-0.001 0.043,-0.003 0.064,-0.006c0.059,-0.008 0.119,-0.012 0.179,-0.017c0.009,0 0.018,0.002 0.026,0.004c0.014,0.003 0.029,0.004 0.042,0.003l0.017,-0.001c0.017,-0 0.033,0.005 0.047,0.014c0.014,0.01 0.026,0.024 0.032,0.04c0.012,0.037 0.024,0.075 0.035,0.112c0.003,0.023 0.008,0.045 0.01,0.068c-0.001,0.015 -0.009,0.027 -0.021,0.035c-0.013,0.007 -0.028,0.012 -0.043,0.013l-0.019,-0.001c0,0 -0.032,0.004 -0.032,0.004c-0.011,0.002 -0.023,0.003 -0.035,0.003c-0.006,0 -0.011,0 -0.017,-0c0,-0 -0.027,-0 -0.027,-0c-0,-0 -0.026,0.004 -0.026,0.004c-0.023,0.006 -0.047,0.008 -0.071,0.009c-0.018,0.001 -0.036,0.001 -0.054,0.003l-0.022,-0c-0,-0 -0.164,0.004 -0.164,0.004c0,0 -0.043,0.002 -0.043,0.002Z" style="fill-rule:nonzero;"/></g><g transform="matrix(148.006,0,0,177.932,67.8949,598.637)"><path d="M0.375,0.124c-0.006,-0 -0.011,-0 -0.017,-0.001c-0,-0 -0.027,-0.001 -0.027,-0.001c-0.035,-0.001 -0.065,-0.021 -0.075,-0.056c-0.006,-0.023 -0.022,-0.041 -0.041,-0.054c-0.019,-0.014 -0.042,-0.024 -0.067,-0.025c-0.021,0 -0.042,0.008 -0.061,0.017c-0.019,0.008 -0.032,0.024 -0.028,0.045c0,0.003 0.001,0.005 0.002,0.008c0.004,0.006 0.007,0.013 0.009,0.021c0.004,0.021 -0.019,0.03 -0.037,0.033c-0.013,-0 -0.026,0.002 -0.038,0.004c-0,0 -0.03,-0 -0.03,-0c-0.02,-0 -0.041,0.001 -0.061,0.002c-0,0 -0.037,0.001 -0.037,0.001c-0,0 -0.028,-0 -0.028,-0c-0.018,-0.002 -0.037,-0.003 -0.055,-0.003c-0.013,0 -0.027,-0.003 -0.039,-0.008c-0.02,-0.007 -0.038,-0.019 -0.048,-0.038c-0.002,-0.003 -0.003,-0.006 -0.004,-0.01c-0,-0.004 -0.001,-0.009 -0,-0.013c-0.005,-0.025 0.003,-0.05 0.006,-0.075c0,0 0.007,-0.028 0.007,-0.028c0,-0 0.008,-0.036 0.008,-0.036c0.002,-0.029 0.004,-0.058 0.006,-0.087c0.001,-0.032 0.004,-0.063 0.006,-0.095c0.002,-0.013 0.005,-0.028 0.008,-0.041c0.005,-0.017 0.009,-0.035 0.009,-0.053c-0,-0.039 0.009,-0.077 0.014,-0.116c0.011,-0.077 0.022,-0.156 0.028,-0.234c0.001,-0.037 0.032,-0.058 0.065,-0.065c0,-0 0.037,-0 0.037,-0c-0,-0 0.058,-0.002 0.058,-0.002c-0,-0 0.037,-0.003 0.037,-0.003c0.007,0 0.014,-0.001 0.022,-0.002c0.005,-0 0.011,-0.001 0.016,-0.001l0.013,-0c0.013,-0.001 0.027,-0.002 0.041,-0.003c0.019,-0.002 0.038,-0.003 0.057,-0.004c0.047,-0.003 0.086,0.027 0.106,0.067c0.012,0.023 0.025,0.046 0.04,0.067c0.021,0.031 0.04,0.065 0.056,0.098c0.011,0.022 0.023,0.045 0.035,0.066c0.011,0.02 0.02,0.04 0.028,0.061c0.008,0.023 0.019,0.046 0.032,0.066c0.012,0.019 0.022,0.039 0.031,0.06c0.008,0.019 0.018,0.038 0.029,0.056c0.004,0.008 0.007,0.017 0.009,0.026c0.001,0.008 0.003,0.016 0.006,0.024c0.007,0.014 0.014,0.029 0.022,0.042c0.009,0.015 0.018,0.031 0.023,0.048c0.002,0.005 0.004,0.01 0.006,0.015c0.009,0.025 0.018,0.051 0.026,0.077c0.008,0.028 0.024,0.053 0.043,0.075c0.002,0.004 0.004,0.009 0.005,0.014c0.002,0.017 -0.015,0.029 -0.027,0.037c-0.01,0.008 -0.023,0.016 -0.037,0.016c-0.018,0 -0.037,0.002 -0.055,0.003c-0.021,0.001 -0.043,0.002 -0.065,0.002c-0,0 -0.031,0.001 -0.031,0.001c-0.013,0.001 -0.026,0.002 -0.038,0.002Zm-0.22,-0.415c0.01,-0.001 0.021,-0.005 0.019,-0.017c-0.001,-0.002 -0.001,-0.004 -0.002,-0.006c-0,0 -0.031,-0.078 -0.031,-0.078l-0.013,-0.017c-0.009,-0.013 -0.022,-0.025 -0.035,-0.034c-0.004,-0.002 -0.009,-0.004 -0.013,-0.004c-0.011,0 -0.022,0.007 -0.03,0.013c-0.002,0.002 -0.005,0.005 -0.007,0.007c-0.001,0.001 -0.002,0.002 -0.002,0.003c-0.001,0.001 -0.002,0.002 -0.003,0.003c-0.003,0.004 -0.011,0.014 -0.01,0.021l-0.004,0.021c0.003,0.015 -0.001,0.03 -0.003,0.045c-0.008,0.009 -0.002,0.029 -0.001,0.038c0.012,0.001 0.025,0.001 0.037,0.001c0,-0 0.028,-0.002 0.028,-0.002c0.008,-0.001 0.017,-0 0.024,0.002c0.013,-0 0.026,0 0.039,0.002c0.002,0.001 0.005,0.002 0.007,0.002Z" style="fill-rule:nonzero;"/></g><g transform="matrix(148.006,0,0,177.932,182.73,598.637)"><path d="M0.866,0.13c-0.016,-0.001 -0.033,-0.002 -0.05,-0.004c0,-0 -0.043,-0.003 -0.043,-0.003c-0.026,-0 -0.052,-0.007 -0.076,-0.015c-0.011,-0.004 -0.012,-0.019 -0.015,-0.027c-0,-0 -0.015,-0.033 -0.015,-0.033c-0.01,-0.015 -0.017,-0.033 -0.022,-0.05c-0.007,-0.034 -0.015,-0.068 -0.019,-0.103c-0.002,-0.01 -0.015,-0.023 -0.022,-0.029c-0.001,-0.001 -0.006,-0.003 -0.006,-0.006l-0.014,0c-0.003,0.006 -0.007,0.012 -0.009,0.019c-0.002,0.009 -0.004,0.017 -0.008,0.026c-0.003,0.054 -0.006,0.108 -0.008,0.162c-0.002,0.016 -0.013,0.03 -0.027,0.039c-0.016,0.011 -0.035,0.016 -0.055,0.016c0,-0 -0.042,0.001 -0.042,0.001c-0.054,0.002 -0.109,0.003 -0.163,0.003c-0.026,0 -0.052,-0.011 -0.067,-0.033c-0.063,-0.096 -0.118,-0.196 -0.175,-0.296c-0.003,-0.005 -0.005,-0.01 -0.008,-0.015c-0.01,-0.019 -0.021,-0.038 -0.032,-0.056c-0.037,-0.059 -0.07,-0.121 -0.103,-0.182c-0.03,-0.056 -0.06,-0.111 -0.093,-0.165c-0.013,-0.02 -0.025,-0.041 -0.037,-0.062c-0.01,-0.014 -0.017,-0.031 -0.02,-0.048c-0.002,-0.011 0,-0.022 0.006,-0.031c0.007,-0.01 0.018,-0.014 0.03,-0.016c0.026,-0.003 0.051,-0.006 0.077,-0.008c0.037,-0.003 0.073,-0.013 0.107,-0.025c0.036,-0.012 0.073,-0.021 0.11,-0.022c0.014,-0 0.038,-0.003 0.049,0.008c0.021,0.022 0.044,0.047 0.051,0.078c0.005,0.021 0.014,0.041 0.025,0.06c0.011,0.032 0.022,0.065 0.035,0.097c0.008,0.019 0.016,0.039 0.023,0.059c0.012,0.021 0.021,0.046 0.038,0.065c0.002,0.003 0.005,0.005 0.008,0.007c0.004,0.002 0.009,0.003 0.013,0.003c0.013,-0.005 0.023,-0.015 0.027,-0.028c-0,-0.004 -0,-0.008 0,-0.012c0.001,-0.004 0.001,-0.007 0.001,-0.011c-0.002,-0.017 -0,-0.035 0.004,-0.052c0,-0.024 0.002,-0.051 0.011,-0.074c0.004,-0.062 0.016,-0.124 0.033,-0.185c-0,0 0.006,-0.025 0.006,-0.025c0.003,-0.009 0.008,-0.013 0.017,-0.015c0.032,-0.005 0.065,-0.007 0.098,-0.007c-0,-0 0.036,-0.004 0.036,-0.004c0.057,-0.002 0.101,0.035 0.118,0.088c0.002,0.007 0.003,0.014 0.004,0.021c0.002,0.009 0.004,0.019 0.008,0.028c0.012,0.021 0.017,0.045 0.024,0.068c0.009,0.028 0.018,0.057 0.024,0.086c0.003,0.013 0.01,0.025 0.017,0.036c0,0 0.01,0.032 0.01,0.032c0.003,0.011 0.01,0.019 0.02,0.025c0.01,0.005 0.021,0.008 0.032,0.008c0.018,-0.002 0.033,-0.013 0.04,-0.03c0.004,-0.011 0.01,-0.025 0.009,-0.037c-0.002,-0.035 0.004,-0.071 0.009,-0.105c0.007,-0.045 0.012,-0.09 0.015,-0.136c0.001,-0.022 0.001,-0.056 0.026,-0.066c0.016,-0.007 0.035,-0.011 0.053,-0.011c-0,-0 0.053,-0.002 0.053,-0.002c0.007,0.001 0.015,0.002 0.023,0.002c0.005,-0 0.01,-0.001 0.015,-0.001c-0,-0 0.063,-0.001 0.063,-0.001c0.038,-0 0.077,0.006 0.115,0.012c0.025,0.003 0.048,0.016 0.069,0.028c0.004,0.004 0.005,0.012 0.005,0.017c0,0.021 -0.004,0.042 -0.008,0.062c0,0 -0.013,0.035 -0.013,0.035l0,0.013c0.001,0.014 -0.006,0.028 -0.012,0.041c-0.007,0.016 -0.013,0.034 -0.016,0.051c-0.015,0.06 -0.034,0.121 -0.065,0.174c-0,0 -0.011,0.044 -0.011,0.044c-0.002,0.013 -0.004,0.029 -0.011,0.041c-0.014,0.032 -0.024,0.066 -0.032,0.099c-0.008,0.041 -0.021,0.082 -0.036,0.121c-0.011,0.025 -0.02,0.052 -0.025,0.08c-0.003,0.009 -0.007,0.019 -0.012,0.027c-0.017,0.026 -0.024,0.057 -0.032,0.086c-0.011,0.038 -0.044,0.06 -0.083,0.06c-0.007,-0 -0.014,-0.001 -0.021,-0.001l-0.004,-0c-0.008,-0 -0.016,0 -0.023,0.002c-0.008,0.001 -0.016,0.002 -0.024,0.002Z" style="fill-rule:nonzero;"/></g><g transform="matrix(148.006,0,0,177.932,357.62,598.637)"><path d="M0.547,0.135c-0.017,-0 -0.035,-0.004 -0.051,-0.008l-0.005,-0.001c-0.004,0 -0.008,0.001 -0.012,0.003c-0.007,-0.002 -0.015,-0.005 -0.023,-0.005c-0.003,-0 -0.007,0 -0.01,0.001c-0.006,-0.001 -0.013,-0.002 -0.02,-0.003c-0.012,0 -0.024,-0.001 -0.036,-0.005l-0.016,-0.004c-0.009,-0.003 -0.022,-0.008 -0.031,-0.008l-0.008,0.001c-0.005,-0.002 -0.01,-0.004 -0.016,-0.004c-0.017,0 -0.033,-0.009 -0.042,-0.023c-0.008,-0.011 -0.016,-0.024 -0.016,-0.038c0,-0.01 0.005,-0.019 0.011,-0.027c0.005,-0.006 0.009,-0.013 0.009,-0.021c0.001,-0.03 0.013,-0.062 0.031,-0.087c0.007,-0.01 0.01,-0.021 0.011,-0.033c0.001,-0.007 0.003,-0.014 0.005,-0.021c0.015,-0.035 0.05,-0.052 0.087,-0.052c0.013,0 0.026,0.003 0.038,0.007c0.039,0.018 0.08,0.034 0.121,0.048c0.002,0 0.004,0 0.006,0c0.01,0 0.021,-0.002 0.03,-0.008c0.001,-0.001 0.001,-0.002 0.001,-0.004c0,-0.003 -0.001,-0.007 -0.001,-0.011c-0.006,-0.008 -0.013,-0.019 -0.024,-0.02c-0.021,-0.005 -0.042,-0.013 -0.061,-0.023c-0.024,-0.012 -0.049,-0.022 -0.077,-0.024c-0.017,-0.001 -0.036,-0.007 -0.052,-0.014c-0.007,-0.004 -0.015,-0.007 -0.022,-0.009c-0.004,-0.002 -0.008,-0.006 -0.013,-0.006l-0.011,0.001c-0.015,-0.003 -0.032,-0.009 -0.044,-0.019c-0.014,-0.007 -0.026,-0.02 -0.034,-0.033c0,0 -0.018,-0.024 -0.018,-0.024c-0.015,-0.019 -0.03,-0.041 -0.039,-0.064c-0.009,-0.025 -0.017,-0.05 -0.024,-0.075c-0.002,-0.007 -0.004,-0.014 -0.004,-0.021c0,-0.009 0,-0.024 0.003,-0.032c0,-0.013 0.002,-0.027 0.007,-0.038c0.005,-0.009 0.008,-0.019 0.008,-0.029c0.012,-0.021 0.025,-0.041 0.037,-0.062c0.029,-0.046 0.069,-0.091 0.119,-0.116c0.039,-0.019 0.081,-0.036 0.122,-0.049c0.043,-0.013 0.088,-0.021 0.133,-0.022c-0,0 0.053,-0.001 0.053,-0.001c0.023,-0.001 0.046,-0.002 0.069,-0.002c0,0 0.049,0.002 0.049,0.002c0.034,0.004 0.069,0.012 0.101,0.024c0.024,0.007 0.048,0.016 0.07,0.026c0,0 0.028,0.012 0.028,0.012c0.019,0.008 0.04,0.024 0.039,0.048c-0.001,0.012 -0.007,0.024 -0.013,0.033c-0.005,0.005 -0.009,0.01 -0.012,0.016c-0.018,0.056 -0.051,0.11 -0.054,0.169l0,0.006c-0,0.004 -0.001,0.011 -0.005,0.013c-0.006,0.003 -0.014,0.004 -0.021,0.004c-0.006,-0.001 -0.012,-0 -0.019,0c-0.013,0.003 -0.026,0.005 -0.04,0.005c-0.038,-0 -0.076,-0.018 -0.11,-0.035c-0.004,-0.001 -0.008,-0.002 -0.012,-0.002c-0.011,0 -0.02,0.005 -0.029,0.011l-0.005,0.011l0.005,0.007c0.024,0.037 0.09,0.042 0.129,0.053c0.025,0.006 0.049,0.019 0.07,0.033c0.008,0.006 0.017,0.011 0.026,0.014c0.013,0.005 0.027,0.012 0.037,0.023c0.018,0.023 0.033,0.048 0.056,0.066c0.004,0.001 0.008,0.001 0.012,0.003c0.006,0.008 0.015,0.017 0.016,0.027c0.01,0.033 0.008,0.07 0.008,0.104c-0.001,0.016 -0.005,0.032 -0.011,0.047c0,-0 -0.008,0.025 -0.008,0.025c-0.007,0.034 -0.028,0.065 -0.055,0.087c-0.007,0.005 -0.017,0.014 -0.02,0.022c-0.008,0.023 -0.022,0.044 -0.043,0.057c-0.023,0.013 -0.047,0.025 -0.071,0.035l-0.018,0.011c-0.024,0.01 -0.049,0.017 -0.075,0.016c-0,0 -0.044,-0.001 -0.044,-0.001c-0.006,0 -0.012,0.001 -0.018,0.002c-0.019,0.006 -0.039,0.01 -0.059,0.01c0,0 -0.037,-0.001 -0.037,-0.001c-0.003,-0.001 -0.006,-0.001 -0.01,-0.002c-0.008,0 -0.015,-0 -0.023,-0.001c-0.009,0.002 -0.017,0.004 -0.025,0.005Z" style="fill-rule:nonzero;"/></g><g transform="matrix(148.006,0,0,177.932,475.996,598.637)"><path d="M0.8,0.157c-0.053,-0.001 -0.108,-0.015 -0.155,-0.04c-0.008,-0.005 -0.016,-0.011 -0.022,-0.019c-0.014,-0.018 -0.033,-0.031 -0.051,-0.045c-0.024,-0.019 -0.048,-0.039 -0.071,-0.06c-0.019,-0.022 -0.029,-0.049 -0.04,-0.075c-0.006,-0.012 -0.008,-0.028 -0.019,-0.036c-0.003,-0.003 -0.004,-0.008 -0.005,-0.012c-0.004,-0.017 -0.01,-0.035 -0.017,-0.051c-0.013,-0.028 -0.025,-0.06 -0.022,-0.092c0,0 0.005,-0.026 0.005,-0.026c-0,-0 0.006,-0.048 0.006,-0.048c0.011,-0.035 0.021,-0.071 0.029,-0.107c0.01,-0.043 0.032,-0.083 0.055,-0.12c0.009,-0.014 0.018,-0.03 0.027,-0.045c0.005,-0.01 0.012,-0.02 0.022,-0.025c0,-0 0.068,-0.067 0.068,-0.067c0.006,-0.009 0.013,-0.017 0.024,-0.022c-0,0 0.031,-0.01 0.031,-0.01c0.013,-0.01 0.025,-0.019 0.037,-0.029c0.026,-0.021 0.059,-0.036 0.092,-0.035l0.018,-0.01c0.009,-0 0.019,-0.002 0.026,-0.008c0.022,-0.007 0.047,-0.011 0.069,-0.01c0.014,0 0.028,0.002 0.041,0.006l0.01,0.001c0.006,-0 0.011,-0.001 0.016,-0.001c0.016,-0.002 0.032,-0.002 0.048,-0.001c0.012,0 0.025,0.002 0.037,0.007c0.028,0.013 0.059,0.023 0.089,0.029c0.015,0.004 0.028,0.012 0.039,0.022c0.005,0.004 0.01,0.008 0.015,0.012c0.005,0.003 0.009,0.007 0.014,0.01c0.008,0.007 0.017,0.013 0.027,0.018c0.029,0.016 0.053,0.04 0.073,0.067c0.017,0.024 0.033,0.052 0.035,0.082c0.002,0.013 0.006,0.024 0.012,0.035c0.017,0.029 0.019,0.065 0.021,0.098c0.003,0.028 0.003,0.058 -0.002,0.086c-0.008,0.046 -0.013,0.096 -0.035,0.137c-0.013,0.024 -0.022,0.049 -0.031,0.074c-0.009,0.024 -0.017,0.051 -0.034,0.07c-0.005,0.005 -0.009,0.01 -0.013,0.015c-0.005,0.007 -0.01,0.013 -0.015,0.019c-0.061,0.065 -0.135,0.12 -0.215,0.16c-0.037,0.018 -0.078,0.032 -0.12,0.038c-0.039,0.006 -0.08,0.009 -0.119,0.008Zm0.072,-0.331l0.022,-0.002c0.014,0 0.027,-0.005 0.039,-0.012c0.012,-0.007 0.026,-0.013 0.039,-0.018c-0,-0 0.014,-0.023 0.014,-0.023c0.01,-0.028 0.021,-0.055 0.038,-0.079c0.003,-0.024 0.007,-0.049 0.005,-0.073c0.004,-0.023 -0.002,-0.046 -0.015,-0.065c-0.016,-0.026 -0.044,-0.042 -0.075,-0.043c-0.021,-0.001 -0.043,0.006 -0.062,0.016c-0.017,0.009 -0.035,0.021 -0.045,0.039c-0.009,0.018 -0.018,0.037 -0.026,0.056c-0.007,0.015 -0.014,0.032 -0.016,0.049c0,0 -0.007,0.046 -0.007,0.046c-0.001,0.005 -0.002,0.011 -0.003,0.017c0.003,0.004 0.003,0.01 0.002,0.015c0.01,0.027 0.032,0.05 0.055,0.068c0.01,0.008 0.024,0.009 0.035,0.009Z" style="fill-rule:nonzero;"/></g><g transform="matrix(148.006,0,0,177.932,610.488,598.637)"><path d="M1.131,0.165c0,-0 -0.087,-0.003 -0.087,-0.003c-0.025,-0 -0.041,-0.02 -0.048,-0.043c0,-0 -0.011,-0.032 -0.011,-0.032c-0.012,-0.029 -0.018,-0.06 -0.025,-0.09c-0.003,-0.016 -0.007,-0.033 -0.011,-0.049c-0.004,-0.019 -0.013,-0.044 -0.036,-0.044c-0.025,-0.001 -0.033,0.073 -0.036,0.089c-0,0 -0.007,0.038 -0.007,0.038c-0.006,0.031 -0.027,0.058 -0.05,0.079c-0.025,0.025 -0.062,0.041 -0.098,0.04c-0.042,-0.005 -0.085,-0.009 -0.127,-0.013c-0.022,-0.003 -0.05,-0.009 -0.062,-0.031c-0.01,-0.02 -0.01,-0.044 -0.006,-0.065c0,-0 0.009,-0.048 0.009,-0.048c0.005,-0.029 0.01,-0.058 0.014,-0.087c0.006,-0.038 0.013,-0.077 0.02,-0.116c0.005,-0.028 0.011,-0.056 0.018,-0.084c0.006,-0.025 0.011,-0.05 0.016,-0.075c0.004,-0.022 0.006,-0.044 0.007,-0.067l0.002,-0.012l0.003,-0.015c-0,0 0.013,-0.069 0.013,-0.069c-0,-0 0.006,-0.042 0.006,-0.042c0.005,-0.021 0.01,-0.042 0.018,-0.063c-0,0 0.008,-0.029 0.008,-0.029c0.013,-0.041 0.027,-0.111 0.075,-0.125c0.013,-0.003 0.026,-0.005 0.039,-0.004c0.005,0 0.011,0.001 0.016,0.002c0.036,0.006 0.072,0.007 0.107,0.009l0.024,0.002c0.01,0.001 0.021,0.001 0.032,-0.001c0.005,-0.001 0.01,-0.001 0.016,-0.001c0.014,0.001 0.027,0.007 0.039,0.016c0.015,0.011 0.028,0.025 0.034,0.043c0.015,0.042 0.031,0.083 0.048,0.123c0.007,0.018 0.015,0.036 0.022,0.054l0.006,-0.013c0.014,-0.02 0.029,-0.039 0.039,-0.061c0.001,-0 0.018,-0.03 0.018,-0.03c0.004,-0.006 0.012,-0.018 0.013,-0.024l0.004,-0.014c0.003,-0.013 0.008,-0.025 0.014,-0.036c0.013,-0.022 0.036,-0.037 0.059,-0.046c0.004,-0.001 0.007,-0.001 0.011,-0.001c0.003,0 0.005,0.001 0.008,0.001c0.007,0.001 0.013,0.002 0.02,0.002c0,0 0.041,0.003 0.041,0.003c-0,0 0.03,0.005 0.03,0.005c0.007,0 0.013,0.001 0.019,0.003c0.007,0.001 0.014,0.002 0.021,0.003c0.02,0.002 0.041,0.003 0.061,0.004c0.037,0.004 0.059,0.031 0.056,0.068c0,0 -0.001,0.025 -0.001,0.025c0.001,0.038 -0.011,0.076 -0.022,0.112c-0.002,0.018 -0.006,0.035 -0.011,0.052c0,0 -0.013,0.04 -0.013,0.04c-0,-0 -0.014,0.041 -0.014,0.041c-0,0 -0.011,0.039 -0.011,0.039c-0.003,0.009 -0.003,0.019 -0.004,0.029c-0.001,0.014 -0.003,0.027 -0.006,0.04c-0.012,0.041 -0.024,0.081 -0.038,0.121c-0.001,0.001 -0.009,0.029 -0.009,0.029c-0,0.001 -0.009,0.04 -0.009,0.04c-0.003,0.013 -0.005,0.026 -0.009,0.039c-0.006,0.023 -0.013,0.046 -0.021,0.069c0,-0 -0.013,0.039 -0.013,0.039c-0.002,0.007 -0.004,0.013 -0.007,0.019c0,-0 -0.008,0.025 -0.008,0.025c-0.007,0.023 -0.022,0.042 -0.038,0.059c-0.015,0.017 -0.037,0.031 -0.06,0.03c-0.023,0.001 -0.046,0.001 -0.069,0c-0,0 -0.039,0.001 -0.039,0.001Z" style="fill-rule:nonzero;"/></g><g transform="matrix(148.006,0,0,177.932,-133.626,772.053)"><path d="M-0.037,0.033c-0.009,-0 -0.019,-0.007 -0.025,-0.012l-0.004,0.001c-0.009,-0.001 -0.015,-0.01 -0.019,-0.017c-0.01,-0.009 -0.017,-0.022 -0.022,-0.035c-0.005,-0.013 -0.01,-0.027 -0.015,-0.041c-0.008,-0.023 -0.016,-0.047 -0.026,-0.069c-0.022,-0.052 -0.041,-0.106 -0.056,-0.16c-0.014,-0.048 -0.031,-0.096 -0.051,-0.141c-0.015,-0.039 -0.031,-0.077 -0.043,-0.117c-0.006,-0.024 -0.012,-0.049 -0.015,-0.075c-0.003,-0.015 -0.003,-0.033 0.009,-0.045c0.014,-0.014 0.037,-0.016 0.056,-0.018c0.02,-0.002 0.04,-0.005 0.06,-0.007c0.033,-0.006 0.068,-0.006 0.101,-0.008c0.004,-0 0.008,-0.001 0.012,-0.003c-0,0 0.032,0.002 0.032,0.002c0.014,-0 0.028,-0.002 0.042,-0.005c0,0 0.067,-0.001 0.067,-0.001c0.035,-0.001 0.071,0.003 0.105,0.012c0.018,0.005 0.038,0.009 0.057,0.01c0.018,0.002 0.035,0.011 0.049,0.022l0.009,0.007c0.002,0.001 0.004,0.002 0.006,0.003c0.005,0.004 0.014,0.01 0.02,0.011c0.02,0.004 0.04,0.012 0.056,0.025c0.016,0.013 0.032,0.027 0.048,0.04c0.014,0.013 0.028,0.029 0.038,0.046c0.009,0.015 0.017,0.032 0.023,0.049c0.005,0.017 0.013,0.034 0.023,0.049c-0,0 0.007,0.019 0.007,0.019c0.003,0.012 0.001,0.024 0.001,0.035c-0.001,0.012 -0.003,0.026 -0.006,0.038c-0.002,0.011 -0.009,0.024 -0.017,0.033c-0.006,0.007 -0.008,0.015 -0.009,0.023c-0.001,0.009 -0.004,0.017 -0.01,0.023c-0.025,0.024 -0.054,0.044 -0.086,0.058c-0.027,0.012 -0.056,0.022 -0.084,0.03c-0.018,0.005 -0.036,0.011 -0.054,0.017c-0.016,0.005 -0.034,0.004 -0.05,0.005c-0.015,0.001 -0.041,0 -0.05,0.015l0.002,0.007l0.003,0.017c0.007,0.022 0.019,0.043 0.03,0.063c0.003,0.011 0.012,0.022 0.019,0.03c0.001,0.002 0.002,0.004 0.002,0.006c0.003,0.011 -0.003,0.021 -0.009,0.03c-0.007,0.01 -0.018,0.019 -0.029,0.024c-0.013,0.006 -0.028,0.01 -0.042,0.011c-0.031,0 -0.063,-0.001 -0.094,-0.003c-0.009,-0.001 -0.018,-0.001 -0.028,-0.002c0,0 -0.033,-0.002 -0.033,-0.002Zm0.121,-0.452c0.025,0 0.068,0.002 0.083,-0.023c0.004,-0.007 0.008,-0.016 0.006,-0.025c-0.001,-0.003 -0.002,-0.006 -0.004,-0.008c-0.009,-0.011 -0.021,-0.019 -0.034,-0.024c-0.012,-0.005 -0.025,-0.009 -0.038,-0.009l-0.006,0c-0.015,0.001 -0.03,0.003 -0.045,0.004c-0.005,-0 -0.015,0.001 -0.013,0.009c0,0.003 0.001,0.005 0.003,0.007c0.002,0.005 0.003,0.01 0.005,0.016c-0,-0 0.003,0.018 0.003,0.018c-0,-0 0.004,0.02 0.004,0.02c0,0.002 0.001,0.004 0.002,0.006c0.007,0.009 0.025,0.008 0.034,0.009Z" style="fill-rule:nonzero;"/></g><g transform="matrix(148.006,0,0,177.932,-10.3359,772.053)"><path d="M0.521,0.128c-0.021,-0.001 -0.043,-0.004 -0.064,-0.006c-0.006,-0.003 -0.013,-0.004 -0.019,-0.004c-0.004,-0 -0.008,-0.001 -0.011,-0c-0.003,0 -0.005,0 -0.007,0c-0.004,-0 -0.008,-0.001 -0.011,-0.002c-0.004,-0.002 -0.008,-0.003 -0.012,-0.003l-0.005,0l-0.016,-0c-0.019,-0.002 -0.048,-0.007 -0.052,-0.03c-0,-0.004 -0,-0.008 0.001,-0.012l-0.001,-0.005c-0.002,-0.015 -0.008,-0.03 -0.014,-0.043c-0.009,-0.008 -0.019,-0.02 -0.021,-0.032c-0.001,-0.005 -0.004,-0.011 -0.007,-0.015c-0.002,-0.004 -0.006,-0.011 -0.01,-0.014c-0,0 -0.017,-0.029 -0.017,-0.029c-0.01,-0.015 -0.019,-0.03 -0.028,-0.046c-0.003,-0.005 -0.007,-0.009 -0.012,-0.009l-0.004,0l-0.006,-0.002l-0.001,0.001c-0.006,0.004 -0.008,0.011 -0.008,0.017c-0.004,0.013 -0.004,0.028 -0.002,0.041c0.002,0.012 0.002,0.024 0.001,0.036c0.001,0.01 0.002,0.02 0.004,0.03l0.002,0.015c0.003,0.005 0.005,0.011 0.006,0.017l0.002,0.011c0.003,0.016 0.001,0.034 -0.012,0.045c-0.013,0.011 -0.031,0.012 -0.046,0.011c-0.006,-0 -0.028,-0.003 -0.034,-0.003c-0.007,-0.001 -0.015,-0.001 -0.023,-0.001c-0.007,0 -0.014,-0 -0.021,-0l-0.021,0c-0.005,-0 -0.01,-0.002 -0.015,-0.004c-0.023,-0.005 -0.047,-0.008 -0.07,-0.009c0,-0 -0.03,-0.004 -0.03,-0.004c-0.029,-0.009 -0.049,-0.033 -0.059,-0.06c-0,0 -0.031,-0.134 -0.031,-0.134c-0.003,-0.019 -0.007,-0.038 -0.009,-0.057c-0.002,-0.015 -0.005,-0.03 -0.008,-0.045c-0.004,-0.02 -0.01,-0.042 -0.016,-0.062c-0.005,-0.016 -0.009,-0.033 -0.013,-0.049c-0.004,-0.021 -0.007,-0.042 -0.009,-0.063c-0.002,-0.024 -0.006,-0.049 -0.011,-0.073c-0.002,-0.006 -0.004,-0.012 -0.007,-0.018c-0.002,-0.006 -0.004,-0.012 -0.006,-0.019c-0.004,-0.021 -0.006,-0.044 -0.008,-0.066c-0.004,-0.032 -0.007,-0.065 -0.014,-0.097c-0.002,-0.006 -0.003,-0.013 -0.003,-0.019c-0.001,-0.024 0.03,-0.037 0.047,-0.047c0.04,-0.023 0.095,-0.02 0.14,-0.023l0.012,0.001c0.016,-0.001 0.033,-0.002 0.05,-0.002c0.007,0 0.014,0 0.021,0.001c0.036,0.002 0.073,0.003 0.109,0.004c0.006,-0 0.013,-0.001 0.02,-0.002l0.004,-0.001c0.017,0 0.033,0.002 0.05,0.004c0.06,0.003 0.12,0.016 0.176,0.037c0.029,0.01 0.056,0.028 0.075,0.052c0.007,0.008 0.016,0.013 0.026,0.017c-0,0 0.023,0.014 0.023,0.014c0.01,0.007 0.023,0.015 0.029,0.026c-0,-0 0.048,0.057 0.048,0.057c0.008,0.006 0.014,0.014 0.018,0.023c0.003,0.008 0.007,0.018 0.009,0.026c0.002,0.013 0.005,0.026 0.01,0.039c0.005,0.012 0.009,0.024 0.011,0.037c-0,0 0.002,0.022 0.002,0.022c0.002,0.021 0.002,0.044 -0.001,0.065c-0.003,0.022 -0.018,0.04 -0.035,0.053c-0.001,0.001 -0.002,0.001 -0.003,0.002c-0,-0 -0.015,0.027 -0.015,0.027c-0.014,0.025 -0.026,0.05 -0.035,0.076c-0.002,0.003 -0.002,0.006 -0.001,0.009c0.001,0.006 0.009,0.024 0.012,0.03c0.01,0.027 0.016,0.065 0.041,0.084c0.013,0.01 0.021,0.024 0.03,0.037c0.013,0.018 0.027,0.037 0.041,0.055c0.008,0.01 0.015,0.022 0.017,0.035c0.002,0.017 -0.006,0.032 -0.02,0.04c-0.012,0.008 -0.026,0.015 -0.041,0.014c-0,-0 -0.042,-0 -0.042,-0c-0.016,0 -0.034,0 -0.05,-0.001Zm-0.302,-0.501c-0,0 0.028,-0.001 0.028,-0.001c0.008,0 0.02,0 0.027,-0.005c0.01,-0.011 0.034,-0.026 0.032,-0.044l-0,-0.004c-0.001,-0.002 -0.002,-0.004 -0.003,-0.006c-0.013,-0.022 -0.032,-0.04 -0.054,-0.051c-0.01,-0.007 -0.021,-0.011 -0.033,-0.012c-0.025,-0.003 -0.051,-0.004 -0.076,-0.004c-0.005,-0 -0.01,0 -0.015,0.002c-0.013,0.005 0.002,0.061 0.003,0.069c-0,0.004 0,0.009 0.001,0.013c0.002,0.009 0.005,0.019 0.013,0.024c0.008,0.008 0.024,0.011 0.034,0.014c0.014,0.003 0.029,0.005 0.043,0.005Z" style="fill-rule:nonzero;"/></g><g transform="matrix(148.006,0,0,177.932,114.4,772.053)"><path d="M0.334,0.154c-0.018,0.002 -0.036,0.003 -0.053,0.002c-0.014,-0.001 -0.029,-0.002 -0.042,-0.008c-0.004,-0.002 -0.009,-0.004 -0.013,-0.004c-0.002,0 -0.005,0 -0.007,0.001c-0,-0 -0.099,-0.008 -0.099,-0.008c-0.009,-0 -0.019,-0.001 -0.028,-0.002c-0.008,0 -0.015,0.001 -0.022,0.003c-0,-0 -0.03,-0.003 -0.03,-0.003c-0.047,-0.002 -0.069,-0.049 -0.078,-0.09c-0,0 -0.008,-0.046 -0.008,-0.046c-0.008,-0.044 -0.016,-0.088 -0.022,-0.132c-0.007,-0.049 -0.011,-0.099 -0.012,-0.148c0,0 -0.004,-0.068 -0.004,-0.068c-0,-0.007 -0.002,-0.013 -0.005,-0.019c-0.002,-0.005 -0.003,-0.011 -0.004,-0.017l-0.001,-0.003c-0.001,-0.022 -0.003,-0.045 -0.006,-0.066c-0.005,-0.04 -0.009,-0.082 -0.002,-0.122c0.002,-0.016 0.003,-0.033 0.001,-0.049c0,0 -0,-0.028 -0,-0.028c0,-0.038 0.023,-0.067 0.061,-0.073c0.008,-0 0.016,0.001 0.024,0.002c0.011,0.002 0.022,0.003 0.033,0.003c0.011,0.002 0.022,0.004 0.033,0.004c0.013,-0 0.025,-0.002 0.036,-0.008c0.005,-0.004 0.012,-0.006 0.018,-0.007l0.006,-0.001c0.006,-0.001 0.011,-0.002 0.017,-0.002c0.007,0 0.015,0.001 0.022,0.003c0.02,-0.004 0.042,-0.005 0.063,-0.005c0.029,-0 0.057,0.002 0.085,0.006c0,-0 0.028,0.003 0.028,0.003c0.019,-0 0.039,0.001 0.057,0.003c0.036,0.003 0.073,0.007 0.109,0.011c0.021,0.003 0.043,0.009 0.065,0.009l0.017,-0.001c0.025,0 0.049,0.008 0.068,0.025c0.012,0.011 0.021,0.027 0.023,0.043c0.001,0.009 -0,0.018 -0.002,0.027c-0.004,0.009 -0.005,0.018 -0.004,0.028c-0,-0 0.001,0.032 0.001,0.032c0.003,0.005 0.005,0.011 0.005,0.016c0,0.003 0,0.006 -0.002,0.008c-0,0 0.003,0.035 0.003,0.035c0,0 0.005,0.023 0.005,0.023c0.002,0.006 0.004,0.013 0.005,0.019c0.001,0.012 -0.006,0.022 -0.015,0.029c-0.008,0.007 -0.019,0.013 -0.029,0.017c-0.008,0.003 -0.016,0.005 -0.024,0.004c-0.008,0 -0.015,-0.001 -0.022,-0.003c-0.041,-0.013 -0.084,-0.023 -0.127,-0.024c-0,0 -0.046,-0.002 -0.046,-0.002l-0.005,0c-0.008,0 -0.016,-0.002 -0.024,-0.005c-0.033,-0.005 -0.067,-0.004 -0.101,-0.005c0,0 -0.032,0 -0.032,0c-0.003,0.001 -0.004,0.003 -0.005,0.005c-0.003,0.005 -0.005,0.011 -0.006,0.017c-0.002,0.006 -0.004,0.012 -0.006,0.017c0.017,0.004 0.035,0.009 0.052,0.009c0,0 0.025,-0.002 0.025,-0.002c0.003,-0.001 0.006,-0.001 0.009,-0.001c0.008,0.003 0.019,0.004 0.028,0.004c0.006,0 0.013,0 0.02,-0c0.007,0.001 0.015,0.002 0.022,0.002l0.005,0.001c0.006,-0 0.012,-0.002 0.017,-0.005c0.003,-0 0.007,-0.001 0.011,-0.001c0.014,0.001 0.028,0.003 0.042,0.005c0.004,-0 0.007,-0.001 0.011,-0.001c0.015,0.001 0.029,0.008 0.031,0.024c0.001,0.007 -0,0.015 -0.003,0.022c-0.002,0.007 -0.003,0.014 -0.002,0.022c0.001,0.01 0.005,0.019 0.012,0.027c0.003,0.004 0.006,0.009 0.006,0.014c0,0 0,0.038 0,0.038c0.001,0.014 0.001,0.029 0,0.044c-0,0.009 -0.002,0.023 -0.006,0.032c-0.008,0.006 -0.016,0.009 -0.026,0.011c-0.007,0.001 -0.014,0.002 -0.02,0.002c-0,0 -0.033,-0.002 -0.033,-0.002c0,0 -0.026,-0 -0.026,-0c-0.006,-0 -0.013,0 -0.019,0.001c0,-0 -0.031,0.001 -0.031,0.001c-0.014,-0 -0.03,-0.002 -0.043,-0.009c-0.005,-0.002 -0.011,-0.003 -0.017,-0.003c-0.008,-0 -0.015,0.002 -0.021,0.007c-0.008,0.005 -0.014,0.013 -0.013,0.024c0,0.004 0.002,0.009 0.004,0.013c0.003,0.004 0.007,0.01 0.012,0.011c0.004,0.001 0.007,0.001 0.011,0.001c0.005,0.001 0.011,0.001 0.016,0.002c0.007,0.001 0.013,0.002 0.019,0.002c0.011,0 0.022,0.001 0.033,0.002c0.007,0.001 0.015,0.002 0.023,0.002c-0,0 0.038,-0.001 0.038,-0.001c0.005,0 0.01,-0 0.016,0l0.003,0.001c0.013,-0 0.026,-0.002 0.039,-0.005c0.016,-0.003 0.033,-0.005 0.049,-0.007c0,0 0.02,-0.009 0.02,-0.009c0.006,-0.004 0.013,-0.008 0.02,-0.011c0.007,-0.003 0.012,-0.009 0.016,-0.015c0.002,-0.005 0.007,-0.005 0.011,-0.005c0.012,0 0.025,0.004 0.036,0.009c0.009,0.005 0.018,0.011 0.025,0.018c0.024,0.024 0.041,0.058 0.044,0.092c0.001,0.015 0.001,0.03 0.001,0.044c-0,-0 0.001,0.038 0.001,0.038c0.001,0.018 0.006,0.038 0.015,0.054c0.001,0.003 0.002,0.007 0.003,0.011c0.001,0.01 -0.005,0.019 -0.012,0.026c-0.013,0.012 -0.029,0.02 -0.046,0.023c-0.009,-0.001 -0.019,-0.003 -0.028,-0.006c0,0 -0.026,0 -0.026,0c-0.007,-0 -0.014,0.001 -0.02,0.004c-0.012,0.001 -0.024,0.002 -0.035,0.002c-0.006,0.001 -0.011,0.001 -0.017,0.001c-0.02,-0.001 -0.04,-0.001 -0.06,-0c-0.022,-0 -0.044,-0 -0.066,-0.002c-0,0 -0.039,-0.004 -0.039,-0.004c-0.003,-0.002 -0.006,-0.003 -0.009,-0.003c-0,0 -0.027,0 -0.027,0Z" style="fill-rule:nonzero;"/></g><g transform="matrix(148.006,0,0,177.932,229.09,772.053)"><path d="M0.405,0.199c-0.016,-0.001 -0.033,-0.005 -0.048,-0.009l-0.004,-0.001c-0.004,-0 -0.008,0.001 -0.012,0.002c-0.006,-0.002 -0.014,-0.005 -0.021,-0.005c-0.003,-0 -0.006,-0 -0.009,0.001c-0.007,-0.002 -0.013,-0.003 -0.02,-0.003c-0.011,-0.001 -0.022,-0.003 -0.033,-0.007l-0.016,-0.003c-0.008,-0.004 -0.021,-0.009 -0.029,-0.009l-0.007,-0c-0.005,-0.002 -0.01,-0.004 -0.015,-0.004c-0.017,-0 -0.032,-0.01 -0.041,-0.023c-0.009,-0.01 -0.017,-0.023 -0.017,-0.037c-0.001,-0.009 0.002,-0.018 0.008,-0.025c0.004,-0.006 0.007,-0.012 0.007,-0.02c-0.001,-0.028 0.007,-0.057 0.022,-0.081c0.006,-0.01 0.008,-0.021 0.009,-0.032c-0,-0.006 0.001,-0.013 0.002,-0.019c0.012,-0.033 0.044,-0.048 0.078,-0.047c0.012,0 0.024,0.003 0.035,0.008c0.038,0.017 0.077,0.032 0.116,0.046c0.002,0 0.004,0.001 0.005,0.001c0.01,-0 0.02,-0.002 0.028,-0.007c0.001,-0.001 0.001,-0.003 0.001,-0.004c-0,-0.004 -0.001,-0.007 -0.002,-0.011c-0.006,-0.007 -0.014,-0.018 -0.024,-0.019c-0.02,-0.005 -0.04,-0.013 -0.058,-0.023c-0.023,-0.011 -0.047,-0.021 -0.073,-0.023c-0.017,-0.002 -0.034,-0.007 -0.049,-0.015c-0.007,-0.003 -0.015,-0.006 -0.022,-0.008c-0.004,-0.002 -0.008,-0.006 -0.012,-0.006l-0.01,0c-0.015,-0.003 -0.03,-0.008 -0.042,-0.018c-0.014,-0.007 -0.025,-0.018 -0.033,-0.031c-0,0 -0.019,-0.022 -0.019,-0.022c-0.015,-0.018 -0.03,-0.039 -0.04,-0.06c-0.01,-0.023 -0.019,-0.046 -0.027,-0.069c-0.002,-0.006 -0.004,-0.013 -0.005,-0.019c-0.001,-0.008 -0.001,-0.021 0.001,-0.029c-0.001,-0.011 -0.001,-0.024 0.004,-0.035c0.003,-0.008 0.005,-0.017 0.005,-0.026c0.009,-0.018 0.02,-0.037 0.03,-0.055c0.023,-0.042 0.057,-0.082 0.101,-0.103c0.034,-0.018 0.071,-0.032 0.108,-0.044c0.038,-0.013 0.079,-0.019 0.12,-0.02c-0,-0 0.049,-0.002 0.049,-0.002c0.021,-0.001 0.042,-0.001 0.063,-0.001c0,-0 0.045,0.001 0.045,0.001c0.032,0.003 0.065,0.011 0.096,0.021c0.022,0.006 0.045,0.014 0.067,0.023c-0,0 0.026,0.01 0.026,0.01c0.019,0.008 0.04,0.022 0.04,0.044c0.001,0.011 -0.004,0.022 -0.009,0.031c-0.004,0.004 -0.007,0.009 -0.009,0.015c-0.013,0.051 -0.038,0.102 -0.037,0.156l0.001,0.006c-0,0.003 -0,0.01 -0.003,0.012c-0.006,0.002 -0.014,0.003 -0.02,0.003c-0.006,-0 -0.012,-0 -0.017,0.001c-0.013,0.002 -0.025,0.004 -0.037,0.004c-0.037,-0.001 -0.073,-0.017 -0.106,-0.033c-0.004,-0.001 -0.007,-0.001 -0.011,-0.001c-0.01,-0 -0.019,0.004 -0.026,0.009l-0.004,0.01l0.005,0.007c0.025,0.035 0.086,0.039 0.124,0.05c0.024,0.005 0.048,0.017 0.068,0.031c0.008,0.005 0.017,0.01 0.026,0.013c0.013,0.005 0.026,0.011 0.036,0.021c0.019,0.022 0.035,0.046 0.058,0.063c0.004,0 0.008,0.001 0.012,0.002c-0,0 0.017,0.027 0.017,0.027c0.012,0.031 0.014,0.065 0.016,0.098c0,0.015 -0.002,0.031 -0.006,0.045c-0,-0 -0.006,0.024 -0.006,0.024c-0.004,0.032 -0.021,0.062 -0.045,0.083c-0.006,0.005 -0.015,0.013 -0.017,0.021c-0.005,0.022 -0.017,0.043 -0.036,0.055c-0.02,0.013 -0.042,0.024 -0.064,0.033l-0.017,0.01c-0.022,0.01 -0.045,0.016 -0.069,0.015c-0,0 -0.041,-0.002 -0.041,-0.002c-0.006,0 -0.011,0.001 -0.017,0.002c-0.017,0.005 -0.036,0.009 -0.055,0.008c0,0 -0.034,-0.002 -0.034,-0.002c-0.003,-0.001 -0.006,-0.001 -0.01,-0.002c-0.007,0 -0.014,-0.001 -0.022,-0.001c0,-0 -0.023,0.004 -0.023,0.004Z" style="fill-rule:nonzero;"/></g><g transform="matrix(148.006,0,0,177.932,347.466,772.053)"><path d="M0.511,0.222c-0.016,0 -0.032,-0.004 -0.047,-0.008l-0.004,-0.001c-0.004,0 -0.008,0.001 -0.011,0.003c-0.007,-0.002 -0.014,-0.005 -0.021,-0.005c-0.003,-0 -0.007,0 -0.01,0.001c-0.006,-0.002 -0.012,-0.003 -0.018,-0.003c-0.012,-0 -0.023,-0.002 -0.033,-0.006l-0.016,-0.003c-0.007,-0.004 -0.02,-0.009 -0.028,-0.009l-0.007,0c-0.005,-0.002 -0.01,-0.003 -0.015,-0.003c-0.016,-0 -0.03,-0.01 -0.039,-0.023c-0.008,-0.011 -0.014,-0.024 -0.014,-0.038c-0,-0.009 0.004,-0.018 0.009,-0.026c0.005,-0.006 0.008,-0.012 0.009,-0.02c0.001,-0.029 0.011,-0.059 0.027,-0.084c0.007,-0.01 0.01,-0.021 0.011,-0.032c0.001,-0.007 0.002,-0.013 0.004,-0.02c0.013,-0.033 0.046,-0.049 0.08,-0.049c0.012,0 0.023,0.003 0.034,0.008c0.037,0.017 0.074,0.032 0.112,0.046c0.002,0 0.004,0 0.005,0c0.01,0 0.02,-0.001 0.028,-0.007c0.001,-0.001 0.001,-0.003 0.001,-0.004c0,-0.003 -0,-0.007 -0.001,-0.011c-0.005,-0.007 -0.012,-0.018 -0.022,-0.019c-0.019,-0.005 -0.039,-0.013 -0.056,-0.022c-0.022,-0.012 -0.046,-0.022 -0.071,-0.024c-0.016,-0.001 -0.033,-0.007 -0.048,-0.014c-0.006,-0.004 -0.013,-0.006 -0.02,-0.009c-0.004,-0.002 -0.008,-0.005 -0.012,-0.006l-0.01,0.001c-0.014,-0.003 -0.029,-0.009 -0.041,-0.019c-0.012,-0.007 -0.023,-0.019 -0.03,-0.031c-0,0 -0.017,-0.023 -0.017,-0.023c-0.015,-0.018 -0.027,-0.039 -0.036,-0.061c-0.008,-0.023 -0.016,-0.047 -0.022,-0.071c-0.002,-0.006 -0.003,-0.013 -0.003,-0.019c-0.001,-0.009 -0,-0.022 0.002,-0.03c0,-0.012 0.002,-0.025 0.007,-0.036c0.004,-0.008 0.007,-0.017 0.007,-0.026c0.011,-0.019 0.022,-0.038 0.034,-0.057c0.027,-0.042 0.062,-0.084 0.108,-0.106c0.036,-0.017 0.073,-0.032 0.111,-0.044c0.039,-0.013 0.08,-0.019 0.12,-0.02c0,-0 0.049,-0.001 0.049,-0.001c0.021,-0.002 0.042,-0.002 0.062,-0.002c0.001,0 0.045,0.002 0.045,0.002c0.031,0.003 0.063,0.01 0.092,0.021c0.022,0.007 0.043,0.014 0.064,0.024c0,-0 0.025,0.01 0.025,0.01c0.018,0.008 0.037,0.022 0.036,0.045c-0.001,0.01 -0.006,0.021 -0.011,0.03c-0.004,0.005 -0.008,0.01 -0.01,0.015c-0.017,0.052 -0.046,0.103 -0.048,0.158l0,0.006c-0,0.003 -0.001,0.01 -0.004,0.012c-0.006,0.003 -0.013,0.003 -0.019,0.003c-0.006,0 -0.012,0 -0.018,0.001c-0.011,0.003 -0.024,0.005 -0.036,0.005c-0.036,-0.001 -0.07,-0.017 -0.102,-0.033c-0.003,-0.001 -0.007,-0.002 -0.01,-0.002c-0.01,0 -0.019,0.005 -0.027,0.01l-0.004,0.01l0.005,0.007c0.021,0.035 0.082,0.039 0.117,0.05c0.024,0.005 0.046,0.018 0.065,0.032c0.008,0.005 0.015,0.009 0.024,0.013c0.013,0.004 0.026,0.01 0.034,0.021c0.017,0.021 0.031,0.046 0.053,0.063c0.003,-0 0.007,0.001 0.011,0.002c0.005,0.008 0.014,0.016 0.014,0.026c0.01,0.032 0.009,0.067 0.009,0.099c-0.001,0.016 -0.004,0.031 -0.009,0.046c-0,-0 -0.007,0.024 -0.007,0.024c-0.006,0.032 -0.025,0.063 -0.05,0.084c-0.006,0.006 -0.015,0.014 -0.018,0.022c-0.007,0.022 -0.019,0.043 -0.039,0.056c-0.02,0.013 -0.043,0.025 -0.065,0.034l-0.017,0.011c-0.021,0.01 -0.045,0.016 -0.069,0.016c0,0 -0.04,-0.001 -0.04,-0.001c-0.006,-0 -0.011,0.001 -0.017,0.002c-0.017,0.005 -0.036,0.009 -0.054,0.009c0,0 -0.034,-0.001 -0.034,-0.001c-0.003,-0.001 -0.006,-0.002 -0.009,-0.002c-0.007,0 -0.015,-0 -0.022,-0.001c0,-0 -0.023,0.004 -0.023,0.004Z" style="fill-rule:nonzero;"/></g><g transform="matrix(148.006,0,0,177.932,465.842,772.053)"><path d="M0.617,0.224c-0.025,-0 -0.049,-0.006 -0.073,-0.011c-0.034,-0.006 -0.066,-0.023 -0.091,-0.045c-0.017,-0.016 -0.036,-0.032 -0.052,-0.049c-0.008,-0.01 -0.016,-0.02 -0.022,-0.032c-0,0 -0.013,-0.02 -0.013,-0.02c-0.025,-0.035 -0.037,-0.077 -0.049,-0.117c-0.002,-0.021 -0.005,-0.043 -0.009,-0.063l0.002,-0.009c0.001,-0.017 -0,-0.035 -0.003,-0.052c-0.002,-0.031 -0.002,-0.063 -0,-0.094c0.002,-0.041 0.009,-0.082 0.017,-0.121c0.002,-0.012 0.004,-0.023 0.004,-0.035c0.001,-0.011 0.001,-0.021 0.001,-0.032c0.001,-0.029 0.003,-0.058 0.005,-0.086c0.002,-0.034 0.005,-0.068 0.009,-0.101c0.005,-0.019 0.018,-0.034 0.037,-0.038c0.018,-0.005 0.036,-0.008 0.054,-0.007c0.007,-0 0.015,0.001 0.022,0.003c-0,-0 0.023,-0.006 0.023,-0.006c0.003,-0 0.005,-0 0.008,-0.001c0.007,-0.001 0.015,-0.002 0.022,-0.001c0.018,-0 0.035,0.002 0.052,0.004c0.012,0.004 0.027,0.009 0.04,0.009c0,-0 0.025,-0.001 0.025,-0.001c0.013,-0 0.025,0.006 0.034,0.016c0.011,0.011 0.017,0.025 0.018,0.041c0,-0 0.002,0.031 0.002,0.031c0.004,0.059 0,0.118 -0.005,0.176c-0.003,0.027 -0.006,0.055 -0.011,0.083c0,0 -0.005,0.043 -0.005,0.043c-0.005,0.055 -0.002,0.112 0.006,0.167c0.001,0.01 0.009,0.019 0.019,0.021c0,0 0.027,0.005 0.027,0.005c0.014,-0 0.029,-0.003 0.037,-0.015c0.009,-0.013 0.011,-0.029 0.013,-0.044c-0,-0 0.003,-0.063 0.003,-0.063c0.006,-0.076 0.012,-0.152 0.016,-0.229c-0.003,-0.02 -0.005,-0.042 -0.002,-0.063c-0,0 0.004,-0.023 0.004,-0.023c0.002,-0.022 0.006,-0.044 0.011,-0.065c0.006,-0.019 0.009,-0.039 0.011,-0.059c0.009,-0.019 0.029,-0.026 0.049,-0.026c0.034,-0.003 0.069,-0.005 0.103,-0.005c0.043,0.001 0.085,0.004 0.127,0.011c0.014,0.003 0.028,0.01 0.036,0.023c0.006,0.012 0.01,0.029 0.009,0.043c-0,-0 -0.003,0.034 -0.003,0.034c-0.001,0.008 -0.003,0.017 -0.005,0.025c0,0 -0.005,0.037 -0.005,0.037c-0.001,0.019 -0.002,0.039 -0.003,0.058c0,0 -0.007,0.143 -0.007,0.143c-0.001,0.026 -0.002,0.052 -0.003,0.078c-0.001,0.006 -0.002,0.013 -0.004,0.019c-0,0.004 -0.001,0.008 -0.002,0.012c-0.002,0.023 -0.002,0.046 -0.002,0.069c-0.002,0.016 -0.006,0.033 -0.01,0.049c-0.006,0.014 -0.012,0.03 -0.016,0.045c-0.008,0.026 -0.02,0.051 -0.038,0.072c-0.005,0.006 -0.009,0.013 -0.012,0.021c-0.029,0.056 -0.08,0.098 -0.134,0.127c-0.014,0.007 -0.028,0.011 -0.042,0.016c-0,-0 -0.027,0.007 -0.027,0.007c-0.013,0.003 -0.026,0.007 -0.039,0.012c-0.016,0.006 -0.036,0.011 -0.054,0.011c-0,-0 -0.105,0.002 -0.105,0.002Z" style="fill-rule:nonzero;"/></g><g transform="matrix(148.006,0,0,177.932,587.615,772.053)"><path d="M0.919,0.206c-0.018,0.001 -0.037,-0 -0.055,-0.001c-0.006,-0.002 -0.011,-0.002 -0.017,-0.002c-0.003,-0 -0.007,0 -0.01,0.001c-0.002,0 -0.004,0.001 -0.006,0.001c-0.003,-0 -0.006,-0.001 -0.009,-0.002c-0.004,-0.001 -0.007,-0.002 -0.011,-0.001l-0.004,0l-0.015,0.001c-0.017,0.001 -0.041,-0.004 -0.037,-0.026c0,-0.005 0.002,-0.01 0.004,-0.014l0.001,-0.006c0.002,-0.015 0.002,-0.03 0,-0.045c-0.005,-0.01 -0.01,-0.021 -0.009,-0.033c0.001,-0.006 0,-0.011 -0.001,-0.016c-0,-0.004 -0.002,-0.011 -0.005,-0.014c0,-0 -0.006,-0.03 -0.006,-0.03c-0.004,-0.016 -0.008,-0.033 -0.011,-0.049c-0,-0.005 -0.002,-0.01 -0.008,-0.01l-0.003,0.001l-0.005,-0.002l-0.002,0.001c-0.006,0.004 -0.01,0.013 -0.013,0.02c-0.008,0.013 -0.013,0.029 -0.015,0.044c-0.002,0.014 -0.007,0.028 -0.012,0.04c0,0.001 -0.009,0.05 -0.009,0.05c0.001,0.006 0.001,0.011 0,0.017l-0.001,0.013c-0.003,0.019 -0.011,0.038 -0.026,0.05c-0.013,0.012 -0.03,0.017 -0.048,0.017c-0.005,0 -0.025,-0.001 -0.03,-0.001c-0,0 -0.022,0.002 -0.022,0.002c-0.007,0.001 -0.013,0.001 -0.02,0.002l-0.02,0.002c-0.005,0 -0.01,-0.001 -0.014,-0.003c-0.021,-0.004 -0.043,-0.004 -0.064,-0.004c-0,0 -0.028,-0.001 -0.028,-0.001c-0.028,-0.008 -0.037,-0.038 -0.038,-0.064c-0,0 0.015,-0.152 0.015,-0.152c0.003,-0.022 0.007,-0.044 0.01,-0.066c0.004,-0.016 0.006,-0.033 0.009,-0.05c0.003,-0.023 0.005,-0.048 0.006,-0.071c0.001,-0.019 0.003,-0.038 0.005,-0.057c0.003,-0.024 0.008,-0.048 0.014,-0.071c0.007,-0.028 0.012,-0.056 0.016,-0.084c0.001,-0.007 0.001,-0.014 0.001,-0.021c-0.001,-0.007 -0,-0.014 0.001,-0.021c0.003,-0.025 0.011,-0.05 0.017,-0.075c0.008,-0.037 0.018,-0.073 0.024,-0.11c-0,-0 0.005,-0.022 0.005,-0.023c0.008,-0.026 0.042,-0.039 0.064,-0.051c0.044,-0.022 0.097,-0.02 0.145,-0.021l0.011,0.001c0.016,-0.001 0.032,-0.001 0.048,-0.001c0.007,0 0.014,0 0.02,0.001c0.033,0.003 0.067,0.006 0.1,0.008c0.006,-0 0.013,-0.001 0.019,-0.002l0.004,-0.001c0.015,0.001 0.03,0.004 0.045,0.006c0.049,0.004 0.1,0.018 0.144,0.042c0.023,0.011 0.039,0.031 0.048,0.055c0.003,0.008 0.009,0.014 0.016,0.018c-0,0 0.015,0.015 0.015,0.015c0.006,0.007 0.014,0.017 0.016,0.027c-0,-0 0.021,0.058 0.021,0.058c0.006,0.007 0.007,0.016 0.008,0.024c-0,0.009 -0,0.018 -0.002,0.027c-0.003,0.013 -0.004,0.026 -0.004,0.039c0,0.013 -0.001,0.026 -0.004,0.038c0,0 -0.006,0.024 -0.006,0.024c-0.005,0.022 -0.013,0.045 -0.022,0.066c-0.011,0.023 -0.029,0.042 -0.049,0.056c-0.001,0.001 -0.002,0.002 -0.003,0.002c-0.011,0.006 -0.016,0.02 -0.023,0.03c-0.02,0.026 -0.039,0.053 -0.056,0.081c-0.002,0.003 -0.003,0.006 -0.003,0.009c-0.002,0.007 -0,0.024 0.001,0.031c-0,0.024 -0.009,0.066 0.008,0.085c0.009,0.01 0.011,0.025 0.015,0.037c0.006,0.018 0.012,0.036 0.019,0.054c0.005,0.011 0.006,0.023 0.004,0.035c-0.004,0.018 -0.015,0.033 -0.031,0.043c-0.011,0.008 -0.025,0.018 -0.04,0.019c-0.012,0 -0.024,0.002 -0.037,0.004c-0.014,0.002 -0.03,0.003 -0.045,0.004Zm-0.108,-0.52c-0,0 0.026,-0.002 0.026,-0.002c0.009,0 0.019,-0 0.027,-0.005c0.014,-0.014 0.039,-0.028 0.044,-0.049l0.002,-0.004c0,-0.002 -0,-0.005 -0.001,-0.007c-0.003,-0.021 -0.013,-0.041 -0.03,-0.054c-0.007,-0.007 -0.016,-0.011 -0.026,-0.012c-0.023,-0.004 -0.047,-0.004 -0.07,-0.004c-0.004,-0 -0.009,0 -0.014,0.002c-0.017,0.007 -0.02,0.062 -0.023,0.075c-0.001,0.005 -0.002,0.01 -0.003,0.015c-0.002,0.008 -0.003,0.02 0.004,0.026c0.004,0.009 0.019,0.012 0.026,0.014c0.012,0.004 0.025,0.005 0.038,0.005Z" style="fill-rule:nonzero;"/></g><g transform="matrix(148.006,0,0,177.932,712.35,772.053)"><path d="M0.63,0.168c-0.015,0.003 -0.03,0.006 -0.045,0.007c-0.009,0 -0.022,0.001 -0.031,-0.004c-0.003,-0.002 -0.007,-0.003 -0.01,-0.002c-0.002,-0 -0.004,0 -0.006,0.001c-0,-0 -0.08,0.002 -0.08,0.002c0,0 -0.024,0.001 -0.024,0.001c-0.006,0 -0.013,0.002 -0.019,0.004c0,0 -0.024,0.001 -0.024,0.001c-0.044,0.002 -0.043,-0.054 -0.04,-0.084c0,-0 0.008,-0.047 0.008,-0.047c0.007,-0.044 0.014,-0.089 0.023,-0.133c0.01,-0.05 0.023,-0.1 0.038,-0.15c-0,0 0.019,-0.069 0.019,-0.069c0.001,-0.006 0.002,-0.012 0.002,-0.019c0,-0.005 0.001,-0.011 0.002,-0.017l0,-0.003c0.007,-0.022 0.013,-0.044 0.017,-0.066c0.01,-0.042 0.022,-0.085 0.041,-0.124c0.007,-0.016 0.013,-0.032 0.018,-0.049c-0,0 0.01,-0.028 0.01,-0.028c0.012,-0.034 0.039,-0.066 0.077,-0.072c0.006,-0 0.013,0.001 0.019,0.002c0.009,0.002 0.017,0.003 0.026,0.004c0.008,0.002 0.017,0.004 0.026,0.004c0.011,0 0.022,-0.002 0.032,-0.007c0.004,-0.003 0.011,-0.005 0.016,-0.006l0.006,-0.001c0.004,-0.002 0.009,-0.002 0.014,-0.002c0.006,0 0.011,0.001 0.017,0.003c0.017,-0.003 0.034,-0.004 0.052,-0.004c0.021,0.001 0.043,0.003 0.065,0.007c0.007,0 0.014,0.001 0.021,0.003c0.013,0 0.029,0.002 0.042,0.004c0.027,0.003 0.053,0.007 0.079,0.012c0.015,0.003 0.03,0.009 0.046,0.009l0.013,-0.001c0.017,0 0.034,0.008 0.042,0.024c0.007,0.012 0.006,0.026 0.003,0.039c-0.002,0.008 -0.006,0.016 -0.01,0.024c-0.005,0.008 -0.009,0.016 -0.012,0.025c0,0 -0.01,0.03 -0.01,0.03c0.001,0.005 0.001,0.01 -0.001,0.015c-0,0.002 -0.002,0.005 -0.004,0.007c0,-0 -0.008,0.032 -0.008,0.032c-0,-0 -0.003,0.02 -0.003,0.02c-0.001,0.006 -0.002,0.012 -0.003,0.018c-0.003,0.011 -0.011,0.02 -0.02,0.027c-0.008,0.006 -0.017,0.012 -0.027,0.016c-0.006,0.002 -0.013,0.005 -0.019,0.005c-0.006,-0 -0.011,-0.001 -0.016,-0.003c-0.028,-0.011 -0.058,-0.019 -0.089,-0.019c-0,0 -0.035,-0.001 -0.035,-0.001l-0.004,0.001c-0.006,-0 -0.012,-0.002 -0.017,-0.005c-0.026,-0.004 -0.052,-0.002 -0.078,-0.002c0,0 -0.026,0.001 -0.026,0.001c-0.002,0 -0.004,0.003 -0.005,0.004c-0.004,0.005 -0.007,0.011 -0.011,0.017c-0.003,0.005 -0.006,0.011 -0.01,0.017c0.012,0.004 0.026,0.007 0.039,0.007c-0,0 0.02,-0.003 0.02,-0.003c0.003,-0 0.005,-0.001 0.007,-0.001c0.006,0.003 0.015,0.003 0.021,0.003c0.006,0 0.011,-0 0.016,-0.001c0.006,0.001 0.011,0.002 0.017,0.002l0.004,0c0.005,0 0.01,-0.002 0.014,-0.005c0.003,-0 0.006,-0 0.009,-0c0.011,-0.001 0.021,0.001 0.031,0.003c0.003,-0.001 0.006,-0.001 0.009,-0.001c0.013,-0 0.02,0.008 0.016,0.021c-0.001,0.007 -0.004,0.014 -0.008,0.02c-0.004,0.007 -0.007,0.014 -0.009,0.021c-0.002,0.009 -0.002,0.017 0.001,0.026c0.001,0.004 0.002,0.008 0,0.013c0,-0 -0.011,0.034 -0.011,0.035c-0.003,0.013 -0.008,0.028 -0.013,0.041c-0.003,0.01 -0.008,0.022 -0.014,0.031c-0.007,0.005 -0.015,0.009 -0.024,0.012c-0.005,0.001 -0.011,0.003 -0.016,0.003c-0,-0 -0.025,-0 -0.025,-0c-0,0 -0.021,0.001 -0.021,0.001c-0.005,0 -0.01,0.001 -0.015,0.002c0,0 -0.025,0.003 -0.025,0.003c-0.01,0.001 -0.023,-0 -0.032,-0.006c-0.004,-0.001 -0.008,-0.002 -0.013,-0.002c-0.007,0 -0.013,0.004 -0.018,0.008c-0.008,0.006 -0.016,0.014 -0.018,0.024c-0.001,0.004 -0.001,0.008 -0.001,0.012c0.001,0.003 0.002,0.01 0.007,0.011c0.002,0 0.005,0 0.008,0c0.004,0 0.008,0 0.012,0.001c0.005,0.001 0.01,0.001 0.015,0c0.008,0 0.017,0 0.025,0.001c0.006,0 0.012,0 0.018,0c-0,0 0.03,-0.004 0.03,-0.004c0.005,-0 0.009,-0.001 0.013,-0.001l0.002,0.001c0.011,-0.001 0.022,-0.004 0.033,-0.007c0.013,-0.004 0.027,-0.007 0.04,-0.01c0.006,-0.003 0.012,-0.006 0.018,-0.01c-0,-0 0.019,-0.011 0.019,-0.011c0.006,-0.004 0.012,-0.01 0.016,-0.016c0.003,-0.003 0.006,-0.005 0.011,-0.005c0.008,-0 0.016,0.003 0.024,0.007c0.006,0.004 0.011,0.008 0.014,0.014c0.013,0.025 0.013,0.056 0.007,0.083c-0.004,0.013 -0.008,0.026 -0.012,0.039c-0,0 -0.01,0.036 -0.01,0.036c-0.004,0.015 -0.005,0.032 -0.003,0.047c-0,0.004 -0,0.007 -0.001,0.01c-0.002,0.01 -0.009,0.019 -0.017,0.026c-0.011,0.011 -0.025,0.02 -0.04,0.025c-0,-0 -0.021,-0.002 -0.021,-0.002c0,-0 -0.02,0.002 -0.02,0.002c-0.006,0.001 -0.012,0.003 -0.017,0.006c-0.009,0.002 -0.019,0.004 -0.028,0.006c-0.004,0.001 -0.009,0.002 -0.013,0.002c-0.016,0.001 -0.032,0.003 -0.048,0.005c-0.017,0.003 -0.035,0.005 -0.052,0.006c-0,0 -0.03,-0.001 -0.03,-0.001c-0.002,-0.001 -0.004,-0.001 -0.007,-0.001c-0.007,0 -0.014,0.002 -0.021,0.003Z" style="fill-rule:nonzero;"/></g><g transform="matrix(148.006,0,0,177.932,-113.283,945.468)"><path d="M0.484,0.037c-0.031,-0.005 -0.06,-0.02 -0.088,-0.032c-0.029,-0.004 -0.056,-0.017 -0.082,-0.03c-0.036,-0.017 -0.069,-0.041 -0.099,-0.068c-0.028,-0.018 -0.055,-0.041 -0.075,-0.068c-0.005,-0.005 -0.01,-0.01 -0.016,-0.015c-0.022,-0.017 -0.038,-0.04 -0.055,-0.062c-0,-0 -0.023,-0.032 -0.023,-0.032c-0.004,-0.006 -0.007,-0.013 -0.013,-0.018c-0.032,-0.032 -0.041,-0.082 -0.061,-0.121c0,-0 -0.012,-0.036 -0.012,-0.036c-0.007,-0.037 -0.015,-0.075 -0.013,-0.113c0.004,-0.016 0.007,-0.032 0.007,-0.047c0,-0.011 0.004,-0.025 0.01,-0.034c0.021,-0.028 0.044,-0.055 0.066,-0.082c0.018,-0.019 0.04,-0.035 0.064,-0.046c-0,-0 0.025,-0.015 0.025,-0.015c0.009,-0.005 0.019,-0.008 0.029,-0.009c0.016,-0.002 0.031,-0.006 0.047,-0.009c0.009,-0 0.018,-0.002 0.026,-0.005c0.002,-0.001 0.005,-0.001 0.007,-0.001c0.007,0.001 0.012,-0 0.019,-0.001c-0,-0 0.031,-0.001 0.031,-0.001c0.048,0.004 0.096,0.006 0.143,0.02c0.028,0.01 0.056,0.022 0.084,0.035c0.017,0.005 0.035,0.012 0.052,0.02c0.033,0.017 0.065,0.042 0.089,0.071c0.007,0.008 0.015,0.015 0.023,0.021c0.013,0.01 0.029,0.023 0.033,0.041c0.003,0.02 -0.016,0.035 -0.029,0.046c-0.03,0.025 -0.061,0.049 -0.091,0.073c-0.01,0.021 -0.03,0.033 -0.053,0.031c-0.02,-0.002 -0.038,-0.013 -0.052,-0.026c-0.008,-0.007 -0.018,-0.013 -0.028,-0.018c-0.007,-0.003 -0.013,-0.007 -0.02,-0.01c-0.015,-0.008 -0.031,-0.016 -0.048,-0.018c-0.016,-0.002 -0.03,0.006 -0.041,0.017c-0.004,0.003 -0.008,0.006 -0.012,0.009c0,0 -0.017,0.012 -0.017,0.012c-0.008,0.005 -0.017,0.011 -0.02,0.02c-0.004,0.009 -0.01,0.016 -0.017,0.022c0,-0 0.004,0.031 0.004,0.031c0.003,0.017 0.01,0.033 0.017,0.048c0.013,0.014 0.026,0.027 0.039,0.041c0.01,0.011 0.024,0.021 0.036,0.028c0.015,0.006 0.027,0.018 0.038,0.029c0.009,0.005 0.019,0.007 0.029,0.008c0.013,0.002 0.029,0.001 0.04,-0.004c0.022,-0.011 0.046,-0.02 0.07,-0.026c0.005,-0.002 0.01,-0.002 0.016,-0.001c0.018,0.002 0.033,0.014 0.045,0.027l0.015,0.013c0.015,0.012 0.029,0.027 0.04,0.043c-0,-0 0.051,0.061 0.051,0.061c-0,0 0.022,0.023 0.022,0.023c0.013,0.016 0.02,0.035 0.024,0.055c0.001,0.006 0.002,0.011 0.001,0.017c0,0.006 -0.002,0.01 -0.006,0.013c-0.005,0.004 -0.01,0.007 -0.015,0.01c-0.004,0.003 -0.009,0.005 -0.014,0.008c-0.002,0.002 -0.005,0.004 -0.008,0.006c-0.005,0.002 -0.009,0.005 -0.013,0.009c-0.006,0.008 -0.014,0.015 -0.024,0.019c-0.014,0.007 -0.031,0.012 -0.046,0.018c-0.026,0.008 -0.055,0.01 -0.082,0.009c-0.023,-0.001 -0.046,-0.002 -0.069,-0.006Z" style="fill-rule:nonzero;"/></g><g transform="matrix(148.006,0,0,177.932,13.6212,945.468)"><path d="M0.25,0.125c-0,-0 -0.024,-0.004 -0.024,-0.004c-0,0 -0.029,-0.005 -0.029,-0.005c-0.015,-0.006 -0.031,-0.01 -0.046,-0.012c-0.028,-0.004 -0.051,-0.021 -0.065,-0.045c-0.015,-0.024 -0.026,-0.051 -0.034,-0.079c-0.005,-0.022 -0.01,-0.045 -0.014,-0.068c-0.006,-0.031 -0.011,-0.064 -0.012,-0.096c0,0 -0.002,-0.038 -0.002,-0.038c0,0 -0.008,-0.032 -0.008,-0.032c-0.003,-0.011 -0.005,-0.021 -0.007,-0.032c-0.02,-0.137 -0.036,-0.274 -0.053,-0.412c-0.001,-0.016 0.003,-0.032 0.012,-0.046c0.009,-0.014 0.026,-0.02 0.043,-0.019c0.042,0.003 0.084,0.007 0.126,0.011c0.028,0.004 0.056,0.009 0.084,0.011c0.021,0.001 0.044,0.004 0.06,0.018c0.012,0.009 0.02,0.023 0.022,0.039c0.001,0.005 0.001,0.011 0.002,0.017c0.001,0.027 0.001,0.054 0.006,0.081c-0,0 0.017,0.138 0.017,0.138c0.003,0.019 0.003,0.038 0.004,0.056c-0.003,0.001 0,0.01 0,0.01c0.001,0.005 0.002,0.01 0.003,0.015c0,0.001 0.001,0.002 0.001,0.003c0.002,0.012 0.002,0.024 0.002,0.036c0.001,0.021 0.002,0.042 0.005,0.062c0.001,0.005 0.005,0.023 0.006,0.027c0,0 0.005,0.036 0.005,0.036c0.002,0.01 0.006,0.019 0.013,0.027c0.004,0.004 0.008,0.008 0.014,0.009c0.02,0.001 0.04,0.003 0.06,0.003c0.055,-0 0.11,0.004 0.165,0.007c0.008,0.001 0.016,0.004 0.024,0.007c0.011,0.005 0.025,0.008 0.038,0.009l0.015,0.001c0.016,0.002 0.03,0.01 0.042,0.021c0.013,0.011 0.022,0.027 0.026,0.044c0.009,0.04 0.017,0.081 0.025,0.121c0.003,0.025 0.006,0.05 0.007,0.075c-0.001,0.014 -0.008,0.027 -0.021,0.035c-0.011,0.006 -0.026,0.01 -0.039,0.009l-0.017,-0.003c-0.01,-0.002 -0.02,-0.002 -0.029,-0.001c-0.011,0.001 -0.022,0.001 -0.033,-0c-0.005,-0.001 -0.01,-0.002 -0.015,-0.003c-0.008,-0.001 -0.017,-0.002 -0.025,-0.003c-0.008,-0 -0.016,-0 -0.024,0.001c-0.021,0.003 -0.044,0.002 -0.066,-0c-0.016,-0.002 -0.033,-0.004 -0.05,-0.004l-0.021,-0.004c0,0 -0.153,-0.019 -0.153,-0.019c0,-0 -0.04,-0.004 -0.04,-0.004Z" style="fill-rule:nonzero;"/></g><g transform="matrix(148.006,0,0,177.932,130.046,945.468)"><path d="M0.456,0.241c-0.016,0.001 -0.033,0.001 -0.05,-0.001c-0.013,-0.001 -0.027,-0.003 -0.039,-0.01c-0.004,-0.003 -0.008,-0.004 -0.012,-0.005c-0.002,-0 -0.005,0 -0.007,0.001c0,-0 -0.092,-0.013 -0.092,-0.013c-0,0 -0.027,-0.003 -0.027,-0.003c-0.007,-0.001 -0.014,-0 -0.021,0.002c0,-0 -0.027,-0.005 -0.027,-0.005c-0.049,-0.005 -0.068,-0.062 -0.076,-0.102c-0,-0 -0.008,-0.051 -0.008,-0.051c-0.008,-0.048 -0.016,-0.097 -0.022,-0.145c-0.006,-0.052 -0.01,-0.105 -0.011,-0.157c-0,-0 -0.003,-0.073 -0.003,-0.073c-0.001,-0.006 -0.003,-0.013 -0.005,-0.019c-0.002,-0.006 -0.004,-0.012 -0.004,-0.018l-0.001,-0.004c-0,-0.022 -0.002,-0.046 -0.005,-0.068c-0.004,-0.041 -0.008,-0.084 0,-0.125c0.002,-0.016 0.003,-0.033 0.002,-0.049c0,-0 0,-0.028 0,-0.028c0.002,-0.037 0.022,-0.066 0.06,-0.071c0.007,0.001 0.015,0.002 0.022,0.004c0,-0 0.031,0.004 0.031,0.004c0.01,0.003 0.021,0.006 0.032,0.006c0.011,0.001 0.023,-0 0.033,-0.006c0.005,-0.003 0.012,-0.005 0.017,-0.006l0.006,-0c0.005,-0.001 0.01,-0.002 0.016,-0.001c0.007,-0 0.014,0.001 0.02,0.004c0.02,-0.003 0.04,-0.003 0.06,-0.002c0.026,0.001 0.053,0.005 0.079,0.01c0.009,-0 0.018,0.002 0.027,0.004c0.017,0.001 0.035,0.003 0.052,0.006c0.034,0.004 0.068,0.01 0.102,0.015c0.02,0.005 0.04,0.012 0.06,0.013l0.016,-0.001c0.024,0.001 0.047,0.011 0.063,0.028c0.012,0.012 0.02,0.028 0.021,0.044c0,0.009 -0.001,0.018 -0.003,0.027c-0.003,0.009 -0.004,0.018 -0.004,0.028c0,-0 0.001,0.033 0.001,0.033c0.003,0.005 0.004,0.011 0.005,0.017c-0,0.002 -0,0.005 -0.002,0.007c-0,0 0.002,0.036 0.002,0.036c0,0 0.005,0.023 0.005,0.023c0.002,0.007 0.003,0.014 0.004,0.021c0.001,0.011 -0.005,0.021 -0.014,0.029c-0.008,0.006 -0.018,0.013 -0.028,0.016c-0.007,0.003 -0.015,0.004 -0.022,0.004c-0.007,-0.001 -0.014,-0.002 -0.02,-0.004c-0.038,-0.015 -0.078,-0.028 -0.119,-0.03c0,-0 -0.043,-0.005 -0.043,-0.005l-0.004,0.001c-0.008,-0.001 -0.016,-0.004 -0.023,-0.007c-0.031,-0.007 -0.063,-0.007 -0.094,-0.009c-0,-0 -0.031,-0.002 -0.031,-0.002c-0.002,0 -0.004,0.003 -0.005,0.004c-0.002,0.006 -0.004,0.012 -0.005,0.018c-0.002,0.006 -0.004,0.012 -0.006,0.017c0.015,0.005 0.032,0.011 0.049,0.012c-0,0 0.023,-0.001 0.023,-0.001c0.003,-0.001 0.006,-0.001 0.008,-0c0.008,0.003 0.018,0.004 0.027,0.005c0.006,0 0.012,0 0.018,0c0.007,0.002 0.014,0.004 0.022,0.004l0.004,0.001c0.006,-0 0.011,-0.002 0.015,-0.005c0.004,0 0.008,0 0.011,0.001c0.013,0 0.027,0.003 0.039,0.006c0.004,-0 0.007,-0 0.011,-0c0.015,0.001 0.027,0.01 0.028,0.025c0.001,0.008 0,0.016 -0.002,0.023c-0.002,0.008 -0.003,0.015 -0.002,0.023c0.001,0.011 0.005,0.02 0.01,0.029c0.004,0.005 0.006,0.01 0.006,0.015c0,0 0.001,0.039 0.001,0.039c0,0.016 0,0.032 -0,0.047c-0.001,0.01 -0.002,0.024 -0.006,0.034c-0.007,0.006 -0.015,0.009 -0.025,0.011c-0.006,0 -0.012,0.002 -0.019,0.001c0,0 -0.03,-0.003 -0.03,-0.003c0,-0 -0.025,-0.002 -0.025,-0.002c-0.005,-0 -0.011,-0 -0.017,0.001c-0,-0 -0.029,-0.001 -0.029,-0.001c-0.014,-0.001 -0.028,-0.004 -0.04,-0.011c-0.006,-0.002 -0.011,-0.003 -0.017,-0.004c-0.007,-0 -0.013,0.002 -0.019,0.007c-0.008,0.005 -0.014,0.014 -0.013,0.024c0.001,0.005 0.003,0.01 0.005,0.014c0.002,0.005 0.006,0.012 0.011,0.013c0.003,0.001 0.007,0.002 0.01,0.002c0.005,0 0.01,0.001 0.015,0.003c0.006,0.001 0.012,0.002 0.018,0.002c0,0 0.03,0.004 0.03,0.004c0.008,0.002 0.015,0.003 0.022,0.003c0,0 0.035,0.001 0.036,0.001c0.005,-0 0.01,-0 0.015,0l0.003,0.001c0.012,0.001 0.024,-0.001 0.036,-0.003c0.015,-0.003 0.031,-0.005 0.046,-0.006c0,0 0.018,-0.009 0.018,-0.009c0,-0 0.019,-0.011 0.019,-0.011c0.007,-0.003 0.012,-0.009 0.015,-0.016c0.002,-0.004 0.007,-0.005 0.011,-0.004c0.011,0 0.023,0.006 0.033,0.011c0.009,0.005 0.017,0.012 0.024,0.02c0.023,0.027 0.038,0.064 0.041,0.1c0,0.016 0.001,0.031 0.001,0.047c-0,-0 0.001,0.041 0.001,0.041c0.001,0.02 0.006,0.041 0.014,0.059c0.002,0.004 0.003,0.008 0.003,0.012c0.001,0.011 -0.003,0.021 -0.011,0.029c-0.01,0.012 -0.025,0.02 -0.041,0.023c-0,-0 -0.027,-0.007 -0.027,-0.007c0,0 -0.024,-0.001 -0.024,-0.001c-0.007,-0 -0.013,0.001 -0.019,0.004c-0.011,0 -0.022,0.001 -0.033,0.001c-0.005,0 -0.01,0.001 -0.015,0.001c-0.018,-0.002 -0.037,-0.003 -0.056,-0.003c-0.021,-0.001 -0.041,-0.002 -0.062,-0.004c0,0 -0.036,-0.006 -0.036,-0.006c-0.002,-0.002 -0.006,-0.003 -0.009,-0.004c0,0 -0.025,-0 -0.025,-0Z" style="fill-rule:nonzero;"/></g><g transform="matrix(148.006,0,0,177.932,244.736,945.468)"><path d="M0.699,0.316c-0.005,-0 -0.01,-0.001 -0.015,-0.002c-0.007,-0.002 -0.015,-0.002 -0.023,-0.003c-0.035,-0.003 -0.056,-0.033 -0.06,-0.066c-0.003,-0.023 -0.015,-0.045 -0.031,-0.062c-0.014,-0.015 -0.034,-0.028 -0.056,-0.031c-0.019,-0.001 -0.038,0.007 -0.056,0.014c-0.019,0.009 -0.03,0.027 -0.029,0.048c0,0.003 0.001,0.006 0.002,0.009c0.002,0.007 0.005,0.016 0.005,0.024c0.001,0.021 -0.016,0.032 -0.036,0.034c-0.011,-0.001 -0.023,0 -0.034,0.003c0,-0 -0.026,-0.003 -0.026,-0.003c-0.018,-0.001 -0.037,-0.002 -0.055,-0.002c0,0 -0.033,-0.001 -0.033,-0.001c-0,-0 -0.025,-0.003 -0.025,-0.003c-0.016,-0.003 -0.033,-0.007 -0.049,-0.008c-0.012,-0.001 -0.024,-0.006 -0.035,-0.012c-0.018,-0.01 -0.033,-0.027 -0.039,-0.047c-0.001,-0.003 -0.002,-0.007 -0.002,-0.011c-0.001,-0.005 -0,-0.01 0.001,-0.015c-0.003,-0.028 0.008,-0.055 0.013,-0.082c0,-0 0.009,-0.03 0.01,-0.03c0.004,-0.013 0.008,-0.025 0.01,-0.038c0.006,-0.031 0.011,-0.062 0.016,-0.093c0.005,-0.032 0.011,-0.065 0.018,-0.097c0.003,-0.014 0.007,-0.029 0.012,-0.042c0.007,-0.017 0.013,-0.035 0.015,-0.053c0.005,-0.039 0.018,-0.076 0.029,-0.114c0.02,-0.073 0.041,-0.147 0.059,-0.221c0.006,-0.033 0.036,-0.052 0.067,-0.056c0.011,0.001 0.022,0.002 0.032,0.004c0,-0 0.051,0.003 0.051,0.003c0,-0 0.033,0 0.033,0c0.006,0 0.013,0 0.019,0c0.005,-0 0.01,-0 0.015,-0l0.011,0.001c-0,-0 0.035,-0 0.035,-0c0.017,-0 0.034,-0 0.05,0.001c0.042,0.001 0.071,0.032 0.082,0.07c0.007,0.022 0.015,0.044 0.025,0.065c0.014,0.031 0.026,0.065 0.035,0.098c0.006,0.022 0.014,0.044 0.022,0.066c0.007,0.02 0.012,0.041 0.016,0.062c0.004,0.022 0.011,0.046 0.02,0.067c0.008,0.02 0.015,0.041 0.019,0.062c0.005,0.02 0.011,0.04 0.019,0.059c0.003,0.009 0.004,0.018 0.004,0.027c0,-0 0.003,0.025 0.003,0.025c0.005,0.015 0.009,0.031 0.015,0.046c0.005,0.016 0.012,0.033 0.014,0.05c0.001,0.006 0.002,0.011 0.004,0.017c0.005,0.027 0.01,0.055 0.014,0.082c0.004,0.03 0.015,0.058 0.029,0.084c0.002,0.005 0.004,0.01 0.004,0.015c-0,0.017 -0.014,0.03 -0.027,0.039c-0.009,0.008 -0.021,0.017 -0.034,0.017c-0.015,-0.001 -0.031,-0 -0.047,0c-0.018,0.001 -0.037,0.001 -0.056,0c-0.009,-0 -0.018,-0 -0.027,-0c-0,-0 -0.033,-0 -0.033,-0Zm-0.148,-0.457c0.011,0.001 0.019,-0.005 0.019,-0.016c-0,-0.002 -0,-0.004 -0.002,-0.006c0,0 -0.017,-0.081 -0.017,-0.081l-0.009,-0.017c-0.006,-0.014 -0.015,-0.027 -0.026,-0.037c-0.003,-0.002 -0.007,-0.005 -0.011,-0.005c-0.009,-0 -0.02,0.006 -0.028,0.01c-0.002,0.003 -0.004,0.005 -0.007,0.007c-0.001,0.001 -0.001,0.002 -0.002,0.003c-0.001,0.001 -0.002,0.002 -0.003,0.003c-0.004,0.004 -0.011,0.013 -0.011,0.02l-0.007,0.02c0.001,0.016 -0.004,0.031 -0.008,0.045c-0.008,0.009 -0.006,0.03 -0.006,0.039c0,0 0.033,0.004 0.033,0.004c-0,-0 0.025,0 0.025,0c0.006,0 0.015,0.001 0.021,0.004c0.011,0.001 0.022,0.002 0.033,0.005c0.002,0.001 0.004,0.002 0.006,0.002Z" style="fill-rule:nonzero;"/></g><g transform="matrix(148.006,0,0,177.932,359.571,945.468)"><path d="M0.812,0.337c0,0 -0.086,0 -0.086,0c-0.027,0 -0.045,-0.024 -0.054,-0.047c-0,0 -0.017,-0.034 -0.017,-0.034c-0.016,-0.031 -0.028,-0.065 -0.041,-0.097c-0.006,-0.018 -0.012,-0.035 -0.019,-0.053c-0.007,-0.019 -0.019,-0.046 -0.043,-0.046c-0.024,-0 -0.019,0.082 -0.019,0.096c0,-0 0.001,0.041 0.001,0.041c-0.001,0.031 -0.016,0.062 -0.034,0.086c-0.02,0.028 -0.054,0.046 -0.088,0.045c-0.04,-0.005 -0.081,-0.009 -0.122,-0.014c-0.024,-0.004 -0.05,-0.012 -0.064,-0.034c-0.013,-0.021 -0.017,-0.046 -0.017,-0.07c0,-0 0,-0.052 0,-0.052c0,-0.03 -0.001,-0.06 -0.001,-0.09c-0.001,-0.041 -0.002,-0.081 -0.002,-0.121c-0,-0.029 0,-0.058 0.001,-0.086c0.001,-0.025 0.002,-0.051 0.002,-0.076c-0,-0.022 -0.002,-0.045 -0.006,-0.067l-0,-0.012l0,-0.015c0,0 -0.001,-0.068 -0.001,-0.068c-0.001,-0.014 -0.001,-0.027 -0.001,-0.041c-0,-0.02 0.001,-0.041 0.004,-0.062c-0,0 0.003,-0.027 0.003,-0.027c0.003,-0.037 0.002,-0.107 0.045,-0.122c0.011,-0.004 0.023,-0.006 0.035,-0.006c0.005,0.001 0.01,0.001 0.016,0.002c0.033,0.005 0.067,0.003 0.101,0.004l0.022,0.001c0.01,0 0.02,-0.001 0.03,-0.003c0.005,-0.001 0.01,-0.001 0.015,-0.001c0.014,0 0.027,0.005 0.039,0.012c0.017,0.01 0.032,0.024 0.042,0.041c0.023,0.039 0.046,0.078 0.071,0.116c0.011,0.018 0.022,0.035 0.032,0.053l0.003,-0.014c0.009,-0.02 0.02,-0.04 0.025,-0.062c0,0 0.011,-0.031 0.011,-0.031c0.002,-0.005 0.007,-0.017 0.008,-0.023l-0,-0.014c0,-0.012 0.002,-0.025 0.006,-0.037c0.008,-0.021 0.026,-0.037 0.046,-0.048c0.003,-0.001 0.007,-0.001 0.01,-0.001c0.003,-0 0.006,0 0.009,0c0.006,0.001 0.013,0.001 0.019,0.001c0,0 0.04,-0 0.04,-0c0,-0 0.03,0.002 0.03,0.002c0.007,-0 0.013,0 0.02,0.001c0.006,0.001 0.013,0.002 0.02,0.002c0.02,-0 0.041,-0.001 0.061,-0.002c0.037,0.002 0.065,0.026 0.071,0.063c0,-0 0.005,0.024 0.005,0.024c0.01,0.036 0.007,0.076 0.005,0.113c0.001,0.018 0.002,0.036 0.001,0.054c-0,-0 -0.005,0.041 -0.005,0.041c-0,-0 -0.005,0.043 -0.005,0.043c-0,0 -0.002,0.04 -0.002,0.04c0,0 0.002,0.031 0.002,0.031c0.002,0.014 0.003,0.028 0.003,0.041c-0.003,0.044 -0.007,0.087 -0.013,0.131c-0,-0 -0.003,0.031 -0.003,0.031c0,-0 -0.001,0.043 -0.001,0.043c0,0.014 0,0.028 -0.001,0.042c-0.001,0.025 -0.004,0.051 -0.007,0.076c-0,0 -0.006,0.044 -0.006,0.044c-0.001,0.007 -0.002,0.014 -0.003,0.02c0,0 -0.004,0.029 -0.004,0.029c-0.002,0.024 -0.013,0.047 -0.027,0.067c-0.012,0.019 -0.031,0.036 -0.055,0.036c-0.023,0.002 -0.046,0.003 -0.068,0.003c-0,-0 -0.039,0.001 -0.039,0.001Z" style="fill-rule:nonzero;"/></g><g transform="matrix(148.006,0,0,177.932,491.028,945.468)"><path d="M0.407,0.336c-0.014,0.001 -0.028,-0.001 -0.042,-0.004c-0.005,-0.002 -0.009,-0.002 -0.014,-0.002c-0.009,0 -0.018,0.003 -0.026,0.005c-0.006,0.003 -0.012,0.004 -0.019,0.004l-0.007,-0l-0.012,-0.002c-0.009,-0.001 -0.017,-0.004 -0.024,-0.008c-0.009,-0.004 -0.012,-0.014 -0.014,-0.023l-0.001,-0.008c-0.004,-0.035 -0.006,-0.072 -0.005,-0.107c0.001,-0.016 0.003,-0.033 0.006,-0.049c-0,0 0.002,-0.054 0.002,-0.054c-0,0 0.005,-0.043 0.005,-0.043c0.002,-0.012 0.003,-0.023 0.004,-0.034c0.001,-0.015 0,-0.029 -0.001,-0.044c-0.007,-0.061 0.002,-0.123 0.006,-0.184c-0,-0 -0,-0.148 -0,-0.148c-0,-0 0.004,-0.039 0.004,-0.039c0.003,-0.021 0.005,-0.042 0.007,-0.062c0.001,-0.013 0.001,-0.027 0.001,-0.04c-0,0 0,-0.039 0,-0.039c0.003,-0.027 0.012,-0.062 0.043,-0.067c0.036,-0.004 0.071,-0.009 0.107,-0.011c0.005,-0.001 0.01,-0.002 0.016,-0.002c0.003,0 0.006,0.001 0.008,0.003c0.008,0.004 0.016,0.006 0.024,0.006c0,0 0.025,-0.002 0.025,-0.002c-0,0 0.028,-0.002 0.028,-0.002c0.01,0 0.02,0.001 0.029,0.004c0.013,0.003 0.021,0.013 0.026,0.025c0.011,0.023 0.022,0.048 0.02,0.075c-0.001,0.011 -0.004,0.021 -0.008,0.031l-0.001,0.006c-0,0.003 -0,0.005 0,0.008c0,0.002 0,0.005 0,0.008c-0,0.006 -0.001,0.026 -0.002,0.031c-0.002,0.024 -0.008,0.048 -0.015,0.07c-0.005,0.016 -0.009,0.032 -0.012,0.048c-0.001,0.008 0.001,0.017 0.004,0.025c0.003,0.008 0.004,0.016 0.004,0.024c-0.003,0.029 -0.006,0.059 -0.01,0.088c-0.003,0.023 -0.006,0.046 -0.008,0.069c-0.001,0.013 -0.001,0.025 0.002,0.037c0.006,0.022 0.006,0.047 0.004,0.07c-0,-0 -0.005,0.032 -0.005,0.032c0,0 -0.003,0.035 -0.003,0.035c-0.001,0.018 -0.003,0.036 -0.006,0.053l-0,0.005c-0.003,0.015 -0.006,0.031 -0.007,0.047c-0.001,0.01 -0.001,0.021 -0.001,0.031c0,-0 -0.002,0.041 -0.002,0.041c-0.002,0.024 -0.013,0.048 -0.034,0.061c-0.028,0.018 -0.062,0.031 -0.096,0.032Z" style="fill-rule:nonzero;"/></g><g transform="matrix(148.006,0,0,177.932,552.095,945.468)"><path d="M0.786,0.275c-0,0 -0.08,0.008 -0.08,0.008c-0.024,0.002 -0.039,-0.019 -0.045,-0.04c-0,0 -0.012,-0.031 -0.012,-0.031c-0.013,-0.029 -0.02,-0.06 -0.028,-0.09c-0.004,-0.016 -0.009,-0.032 -0.013,-0.048c-0.004,-0.017 -0.013,-0.043 -0.035,-0.042c-0.024,0.002 -0.025,0.078 -0.027,0.094c-0,0 -0.004,0.04 -0.004,0.04c-0.004,0.031 -0.021,0.061 -0.04,0.085c-0.02,0.027 -0.052,0.048 -0.086,0.051c-0.038,-0.002 -0.076,-0.003 -0.114,-0.004c-0.021,-0.001 -0.045,-0.008 -0.056,-0.028c-0.01,-0.021 -0.011,-0.045 -0.009,-0.067c0,-0 0.006,-0.05 0.006,-0.05c0.002,-0.03 0.005,-0.059 0.007,-0.089c0.003,-0.039 0.007,-0.079 0.011,-0.118c0.003,-0.028 0.006,-0.057 0.01,-0.085c0.004,-0.025 0.007,-0.049 0.01,-0.074c0.001,-0.022 0.002,-0.044 0.001,-0.066l0,-0.012l0.002,-0.014c0,-0 0.007,-0.068 0.007,-0.068c-0,0 0.002,-0.04 0.002,-0.04c0.002,-0.02 0.006,-0.041 0.011,-0.061c-0,0 0.005,-0.027 0.005,-0.027c0.007,-0.038 0.013,-0.105 0.055,-0.122c0.011,-0.004 0.022,-0.007 0.033,-0.007c0.005,-0 0.01,0 0.015,0.001c0.031,0.003 0.063,0 0.094,-0l0.021,0c0.009,-0 0.018,-0.001 0.028,-0.004c0.004,-0.001 0.009,-0.002 0.013,-0.002c0.013,0 0.025,0.004 0.036,0.011c0.015,0.009 0.027,0.022 0.034,0.037c0.017,0.038 0.035,0.074 0.054,0.11c0.008,0.017 0.016,0.033 0.024,0.049l0.005,-0.013c0.01,-0.02 0.022,-0.039 0.029,-0.061c-0,0 0.013,-0.03 0.013,-0.03c0.002,-0.005 0.008,-0.017 0.009,-0.023l0.001,-0.014c0.002,-0.012 0.005,-0.024 0.01,-0.035c0.009,-0.021 0.027,-0.037 0.047,-0.049c0.003,-0.001 0.006,-0.001 0.01,-0.001c0.002,-0.001 0.005,-0 0.007,-0c0.006,0 0.012,-0 0.018,-0c0,-0 0.036,-0.002 0.036,-0.002c0,-0 0.028,0 0.028,0c0.005,0 0.011,0 0.017,0.001c0.006,0.001 0.012,0.001 0.019,0.001c0.018,-0.001 0.036,-0.002 0.054,-0.004c0.034,-0 0.057,0.022 0.059,0.056c-0,-0 0.002,0.023 0.002,0.023c0.005,0.035 -0.002,0.072 -0.007,0.107c-0.001,0.017 -0.002,0.034 -0.005,0.051c0,-0 -0.008,0.039 -0.008,0.039c0,-0 -0.009,0.041 -0.009,0.041c0,-0 -0.005,0.038 -0.005,0.038c-0,-0 -0.001,0.029 -0.001,0.029c0,0.013 -0,0.026 -0.002,0.039c-0.007,0.041 -0.015,0.082 -0.024,0.123c-0,0 -0.006,0.03 -0.006,0.03c0,0 -0.01,0.08 -0.01,0.08c-0.003,0.024 -0.008,0.048 -0.014,0.072c-0,0 -0.009,0.041 -0.009,0.041c-0.002,0.007 -0.003,0.014 -0.005,0.02c-0,0 -0.007,0.027 -0.007,0.027c-0.004,0.024 -0.017,0.046 -0.03,0.065c-0.013,0.018 -0.031,0.036 -0.054,0.039c-0.021,0.004 -0.042,0.007 -0.063,0.009c-0,-0 -0.035,0.004 -0.035,0.004Z" style="fill-rule:nonzero;"/></g><g transform="matrix(148.006,0,0,177.932,683.551,945.468)"><path d="M0.518,0.209c0,-0 -0.02,0.001 -0.02,0.001c-0.023,-0.002 -0.048,-0 -0.072,0.003c-0.005,0 -0.008,-0.001 -0.011,-0.005c-0.027,-0.01 -0.052,-0.026 -0.075,-0.042c-0.007,-0.001 -0.012,-0.007 -0.015,-0.012c-0.008,-0.005 -0.017,-0.01 -0.026,-0.012c-0.009,0.001 -0.015,-0.006 -0.019,-0.013c-0.008,-0.015 -0.013,-0.033 -0.017,-0.049c0,-0 -0.009,-0.031 -0.009,-0.031c-0.022,-0.067 -0.032,-0.138 -0.021,-0.208c0,0 0.009,-0.042 0.009,-0.042c0,0 0.024,-0.087 0.024,-0.087c0.001,-0.005 0.003,-0.009 0.006,-0.013c0.02,-0.03 0.036,-0.063 0.048,-0.097c0,0 0.014,-0.033 0.014,-0.033c0.008,-0.019 0.024,-0.032 0.043,-0.039c0.022,-0.022 0.044,-0.045 0.063,-0.07c0.052,-0.044 0.113,-0.081 0.18,-0.097c-0,0 0.036,-0.011 0.036,-0.011c0.012,-0.006 0.026,-0.01 0.039,-0.011c0.018,-0.001 0.035,-0.001 0.053,0.001c0.054,-0.002 0.109,0.014 0.153,0.046c0.013,0.01 0.021,0.027 0.027,0.042c0.003,0.009 0.008,0.018 0.014,0.025c0.006,0.006 0.007,0.015 0.006,0.024c-0.001,0.004 -0.003,0.007 -0.004,0.011c-0.007,0.013 -0.017,0.025 -0.029,0.034c-0.012,0.009 -0.022,0.021 -0.032,0.032c0,-0 -0.03,0.035 -0.03,0.035c0,0 -0.05,0.056 -0.05,0.056c-0.012,0.013 -0.026,0.034 -0.044,0.038c-0.006,0.001 -0.011,0.003 -0.016,0.003c-0.017,0.002 -0.029,-0.01 -0.036,-0.023c-0.004,-0.005 -0.012,-0.006 -0.017,-0.007c-0.002,-0 -0.004,-0.001 -0.006,-0.001c-0.003,-0.001 -0.006,-0.001 -0.009,-0.001c-0.004,-0 -0.007,-0.001 -0.011,-0.002c-0.008,-0.004 -0.017,-0.005 -0.026,-0.004c-0.023,0.002 -0.043,0.018 -0.06,0.032c-0.015,0.013 -0.03,0.03 -0.034,0.05c-0.001,0.007 -0.002,0.013 -0.001,0.019c-0,0 -0.002,0.022 -0.002,0.022c-0,0 -0.008,0.034 -0.008,0.034c-0.003,0.025 0,0.05 0.003,0.075c0,0.01 0.002,0.026 0.016,0.024l0.007,-0.001c-0,-0 0.019,0.005 0.019,0.005c0.006,-0.011 0.012,-0.024 0.016,-0.036c0.011,-0.034 0.034,-0.066 0.067,-0.081c0,0 0.021,-0.001 0.021,-0.001c0.011,-0.001 0.021,-0.004 0.031,-0.011l0.002,-0c0.009,0 0.018,0.001 0.027,-0c0.009,0.004 0.024,-0 0.033,-0.001c-0,-0 0.025,-0.005 0.025,-0.005c0.008,-0.005 0.017,-0.011 0.027,-0.012c0.009,-0.001 0.017,0.001 0.024,0.007c0.013,0.006 0.015,0.021 0.012,0.033c-0.001,0.006 -0.003,0.011 -0.005,0.017c-0.004,0.009 -0.008,0.02 -0.01,0.03c-0.003,0.014 -0.003,0.03 -0.001,0.044c-0.005,0.032 -0.009,0.064 -0.013,0.096c-0.002,0.006 -0.004,0.012 -0.008,0.016c0,0 -0.007,0.03 -0.007,0.03c-0.002,0.012 -0.003,0.023 -0.001,0.034c-0,0.007 -0.001,0.013 -0.002,0.02c-0.002,0.008 -0.005,0.016 -0.009,0.023c-0.008,0.013 -0.019,0.023 -0.033,0.028c-0.037,0.013 -0.074,0.024 -0.112,0.031c-0.017,0.003 -0.035,0.009 -0.05,0.019c-0.001,0 -0.002,0.001 -0.003,0.001l-0.002,0c-0.009,-0.002 -0.018,-0.003 -0.028,-0.001c-0.011,0.002 -0.022,0.005 -0.033,0.009c-0.009,0.004 -0.018,0.007 -0.028,0.009Z" style="fill-rule:nonzero;"/></g></g></g></g></g><g><path d="M4701.72,10596.1c-28.331,11.284 -48.003,52.43 -33.897,86.484c44.076,106.409 158.01,381.471 158.01,381.471c0,-0 107.726,-42.895 107.726,-42.895c-0,0 -107.798,-281.981 -107.798,-281.981c-0,-0 47.333,23.802 47.333,23.802c16.572,8.469 30.088,10.057 47.546,3.732c16.583,-6.005 26.252,-14.89 34.093,-33.297c-0,0 21.093,-48.396 21.093,-48.396c-0,0.001 97.699,285.446 97.699,285.446c-0,-0 109.967,-35.962 109.967,-35.962c0,-0 -88.631,-284.227 -122.918,-394.182c-11.527,-36.963 -51.184,-54.601 -81.418,-44.716c-0,0 -46.564,15.498 -46.564,15.498c-16.737,5.669 -28.095,14.464 -36.571,33.147c-0,0 -30.745,69.309 -30.745,69.309c0,0 -67.79,-33.62 -67.79,-33.62c-18.364,-8.853 -31.191,-9.051 -49.862,-1.843c0,-0 -45.904,18.003 -45.904,18.003Z" style="fill-rule:nonzero;stroke:#fff;stroke-width:2.71px;"/><path d="M5169.8,10437.6c0,0 45.899,163.606 45.899,163.606c7.018,25.016 19.621,37.58 40.042,46.19l1.446,0.61c0,0 74.387,26.903 74.387,26.903c-0,0 52.276,202.396 52.276,202.396c-0,-0 111.812,-27.255 111.812,-27.255c-0,-0 -46.705,-203.673 -46.705,-203.673c0,-0 53.861,-58.204 53.861,-58.204l1.035,-1.249c14.76,-17.81 19.306,-34.831 14.204,-59.414c-0,-0 -34.529,-166.378 -34.529,-166.378c-0,0 -125.032,27.734 -125.032,27.734c0,0 30.399,128.703 30.399,128.703c0,0 -26.441,28.864 -26.441,28.864c-0,0 -36.772,-13.455 -36.772,-13.455c0,-0 -32.234,-128.256 -32.234,-128.256c0,0 -123.648,32.878 -123.648,32.878Z" style="fill-rule:nonzero;stroke:#fff;stroke-width:2.71px;"/><path d="M5608.98,10336.9c-0,-0 23.775,132.628 23.775,132.628c-0,0 60.736,-10.462 60.736,-10.462c-0,-0 31.975,-5.169 31.975,-5.169c0,0 53.934,341.296 53.934,341.296c0,-0 113.404,-16.339 113.404,-16.339c-0,0 -44.623,-342.637 -44.623,-342.637c0,0 32.097,-4.063 32.097,-4.063c0,-0 61.528,-7.143 61.528,-7.143c-0,0 -14.631,-133.945 -14.631,-133.945c0,-0 -63.348,7.353 -63.348,7.353c-0,0 -85.003,11.245 -85.003,11.245c-0,-0 -22.524,3.245 -22.524,3.245c-0.001,-0 -84.787,13.219 -84.787,13.219c-0,-0 -62.533,10.772 -62.533,10.772Z" style="fill-rule:nonzero;stroke:#fff;stroke-width:2.71px;"/><path d="M6054.53,10278.9c-0,0 39.105,478.678 39.105,478.678c-0,0 113.703,-7.738 113.703,-7.738c-0,0 -9.751,-178.968 -9.751,-178.968c-0,0 62.172,-2.944 62.172,-2.944c0,0 7.212,179.088 7.212,179.088c-0,-0 114.266,-3.047 114.266,-3.047c0,0 -6.284,-480.23 -6.284,-480.23c0,-0 -127.306,3.394 -127.306,3.394c-0,-0 6.691,166.162 6.691,166.162c-0,-0 -64.082,3.035 -64.082,3.035c-0,-0 -9.048,-166.051 -9.048,-166.051c0,0 -126.678,8.621 -126.678,8.621Z" style="fill-rule:nonzero;stroke:#fff;stroke-width:2.71px;"/><path d="M6512.95,10264c0,-0 -4.867,297.685 -6.75,412.846c-0.572,34.995 26.863,67.815 55.646,68.672c-0,-0 43.474,1.522 43.474,1.522c17.336,0.697 28.964,-4.199 42.01,-18.042l1.064,-1.129c0,0 48.751,-57.183 48.751,-57.183c0,-0 43.027,65.1 43.027,65.1c-0,0 2.936,3.185 2.936,3.185c10.472,11.376 21.712,17.489 35.941,18.65c-0,0 43.371,3.769 43.371,3.769c29.633,2.731 60.233,-25.497 64.03,-61.361c12.125,-114.537 43.469,-410.608 43.469,-410.608c0,0 -126.93,-11.692 -126.93,-11.692c-0,0 -22.926,292.246 -22.926,292.246c-0,0 -31.35,-46.321 -31.35,-46.321c-0,-0 -3.087,-3.171 -3.087,-3.171c-11.243,-11.539 -23.324,-17.446 -38.209,-18.354c-18.563,-1.129 -29.822,3.145 -44.032,17.472l-1.096,1.106c-0,0 -35.224,40.471 -35.224,40.471c-0,-0 12.746,-293.387 12.746,-293.387c0,-0 -126.861,-3.791 -126.861,-3.791Z" style="fill-rule:nonzero;stroke:#fff;stroke-width:2.71px;"/><path d="M7218.16,10329c-17.931,-3.031 -32.082,0.071 -47.466,11.921c0,0 -109.739,87.358 -109.739,87.358c-15.227,12.533 -21.228,23.364 -24.139,45.074c-0,0 -17.005,126.823 -17.005,126.822c-2.685,20.028 -0.394,32.678 10.264,48.83l-1.633,-2.636c0,0.001 71.725,128.61 71.725,128.61l0.798,1.301c10.434,17.04 19.637,23.313 37.11,26.266c-0,0 132.231,24.541 132.231,24.541c0,-0 26.703,-132.072 26.703,-132.072c0,-0 -110.203,-20.803 -110.203,-20.803c-0,0 -27.053,-49.77 -27.053,-49.77c-0,0 123.934,22.549 123.934,22.549c-0,0 26.022,-132.206 26.022,-132.206c0,0 -122.681,-22.393 -122.681,-22.393c0.001,0 34.024,-26.177 34.024,-26.177c-0,0 117.73,22.194 117.73,22.194c-0,-0 26.703,-132.071 26.703,-132.071c-0,0 -147.325,-27.338 -147.325,-27.338Z" style="fill-rule:nonzero;stroke:#fff;stroke-width:2.71px;"/><path d="M7648.11,10422.6c-17.814,-4.765 -32.269,-2.862 -48.573,7.359c0,0 -117.851,76.592 -117.851,76.592c-16.25,10.942 -23.389,21.2 -28.334,42.607c-5.634,24.392 -1.527,41.519 12.896,59.72l0.451,0.569c-0,-0 92.45,114.09 92.45,114.09c-0,0 -28.398,25.447 -28.398,25.447c0,-0 -59.567,-15.063 -59.567,-15.063c-0,-0 -57.356,-13.66 -57.356,-13.66c-0,-0 -30.327,131.285 -30.327,131.285c-0,0 55.577,13.237 55.577,13.237c-0,-0 84.906,21.772 84.906,21.772c14.333,3.836 27.091,1.522 40.397,-5.397c0,0 3.89,-2.018 3.89,-2.018c0,-0 120.405,-88.186 120.405,-88.186c14.871,-9.326 22.634,-19.936 28.395,-38.828c7.721,-25.318 4.325,-45.751 -12.026,-64.439l2.227,2.74c-0,-0 -89.21,-113.994 -89.21,-113.994c-0,0 22.363,-16.318 22.363,-16.318c0,-0 64.354,18.154 64.354,18.154c0,0 59.878,17.815 59.878,17.815c0,-0.001 39.304,-128.883 39.303,-128.883c0,-0 -61.649,-18.342 -61.649,-18.342c-0,0 -94.201,-26.259 -94.201,-26.259Z" style="fill-rule:nonzero;stroke:#fff;stroke-width:2.71px;"/><path d="M7925.43,10506.1c-0,0 -42.794,127.767 -42.794,127.767c-0,-0 58.883,20.173 58.883,20.173c0,0 30.875,10.939 30.875,10.939c0,0 -116.55,325.28 -116.55,325.28c0,0 108.762,40.676 108.762,40.676c-0,-0 125.48,-321.94 125.48,-321.94c-0,-0 30.574,12.044 30.574,12.044c0,0 58.368,23.706 58.368,23.706c0,0 51.564,-124.485 51.564,-124.485c-0,-0 -60.095,-24.408 -60.095,-24.408c-0,0 -81.151,-31.439 -81.151,-31.439c-0,0 -21.602,-8.078 -21.602,-8.078c-0,-0 -81.688,-29.464 -81.688,-29.464c-0,-0 -60.626,-20.771 -60.626,-20.771Z" style="fill-rule:nonzero;stroke:#fff;stroke-width:2.71px;"/></g><g><path d="M662.976,10224.9c-53.725,-4.033 -58.469,104.34 -58.743,121.279c-4.047,252.605 1.291,505.398 13.197,757.899c0,0 6.843,125.191 6.843,125.191c-0,-0 109.962,-7.73 109.962,-7.73c0,0 -6.754,-123.535 -6.754,-123.535c-5.432,-114.702 -9.036,-229.439 -11.391,-344.181c-0.792,-38.61 -1.43,-77.221 -1.9,-115.833c-0.207,-16.998 -0.661,-67.993 -0.521,-50.995c-0,0 32.064,87.56 32.064,87.56c4.651,12.676 8.555,44.622 37.994,44.79c28.992,0.166 31.822,-31.424 35.932,-43.714c0,-0 28.691,-84.03 28.691,-84.03c0.971,111.844 3.394,223.684 7.154,335.505c1.189,35.361 2.519,70.72 4.017,106.077c0.79,18.676 3.41,74.701 2.519,56.027c0,-0 6.64,120.922 6.64,120.921c-0,0 99.654,-9.93 99.654,-9.93c-0,0 -6.55,-118.541 -6.55,-118.541c-11.374,-236.55 -16.734,-473.366 -13.148,-710.02c0.316,-20.628 5.22,-118.519 -46.278,-124.334c-0,0 -38.237,-4.194 -38.237,-4.194c-24.803,-2.641 -31.588,18.194 -37.097,29.488c-0,-0 -44.602,98.785 -44.602,98.785c0,-0 -40.722,-106.362 -40.722,-106.362c-5.95,-14.831 -9.042,-34.586 -37.096,-36.869c0,-0 -41.628,-3.254 -41.628,-3.254Z" style="fill:#f2f2f2;fill-rule:nonzero;stroke:#fff;stroke-width:2.71px;"/><path d="M1051.81,10265.9c0,0.001 -2.577,93.983 -2.577,93.983c-0,0 -0.365,21.768 -0.365,21.768c-0.658,43.711 -0.894,87.425 -0.842,131.138c0.027,23.014 0.497,92.053 0.317,69.04c0.308,38.962 3.383,77.073 21.349,114.558l0.973,2.029c-0,-0 51.12,92.984 51.12,92.984c1.521,60.068 3.455,120.132 5.856,180.189c1.264,31.627 5.77,126.498 4.215,94.875c-0,0.001 6.385,113.584 6.385,113.584c-0,-0 89.171,-12.059 89.171,-12.059c0,0 -6.293,-110.495 -6.293,-110.495c-2.968,-59.394 -5.368,-118.798 -7.343,-178.208c-0.982,-29.531 -3.39,-118.131 -2.623,-88.598c0,0 44.764,-88.25 44.764,-88.25l0.864,-1.932c15.461,-34.554 17.152,-69.55 16.83,-105.267c-0.377,-42.036 -0.491,-84.073 -0.252,-126.109c0.113,-19.885 0.889,-79.54 0.598,-59.655c-0,-0 2.729,-107.987 2.729,-107.987c-0,-0 -86.869,-14.798 -86.869,-14.798c-0,0 -2.813,111.232 -2.813,111.232c-0,-0 -0.768,119.004 -0.768,119.004c0,0 -23.079,40.375 -23.079,40.375c0,-0 -23.565,-44.314 -23.565,-44.314c-0,-0 0.795,-120.843 0.795,-120.843c-0,-0 2.857,-112.844 2.857,-112.844c0,-0 -91.434,-13.4 -91.434,-13.4Z" style="fill:#f2f2f2;fill-rule:nonzero;stroke:#fff;stroke-width:2.71px;"/><path d="M1360.74,10317c-0,0 -2.326,84.96 -2.326,84.96c-0,-0 -0.973,135.539 -0.973,135.538c0,0 40.943,4.162 40.943,4.162c-0,-0 21.308,2.219 21.308,2.219c0.279,108.471 2.62,216.941 6.465,325.385c1.276,35.994 2.732,71.985 4.392,107.973c0.861,18.646 3.734,74.576 2.756,55.933c-0,0 6.063,101.873 6.063,101.873c-0,-0 80.178,-13.887 80.178,-13.887c0,-0 -5.97,-98.179 -5.97,-98.179c-5.643,-104.916 -9.389,-209.875 -11.595,-314.84c-0.755,-35.909 -1.313,-71.82 -1.641,-107.731c-0.145,-15.95 -0.341,-63.799 -0.293,-47.849c0,-0 20.683,2.308 20.683,2.308c-0,-0 39.308,4.463 39.308,4.463c-0.147,-43.366 0.088,-86.734 0.938,-130.097c0.46,-23.459 2.929,-93.826 2.015,-70.372c0,0 -39.239,-8.562 -39.239,-8.562c-0,0 -53.378,-11.327 -53.378,-11.327c0,-0 -14.298,-2.968 -14.298,-2.968c0,0 -54.462,-11.027 -54.462,-11.027c0,0 -40.874,-7.975 -40.874,-7.975Z" style="fill:#f2f2f2;fill-rule:nonzero;stroke:#fff;stroke-width:2.71px;"/><path d="M1640.72,10376.3c-0,0 -2.078,74.299 -2.078,74.299c0,-0 -0.275,17.078 -0.275,17.078c-0.739,52.1 -0.637,104.205 -0.023,156.306c0.323,27.424 1.999,109.693 1.397,82.271c0,-0 0.936,38.725 0.936,38.725c1.527,57.894 3.6,115.782 6.24,173.66c1.304,28.598 5.977,114.375 4.363,85.784c0,-0 5.808,91.395 5.808,91.395c0,0 76.089,-14.615 76.089,-14.615c-0,0 -5.715,-87.457 -5.715,-87.457c-0,0 -4.337,-80.511 -6.048,-120.774c-0.597,-14.046 -2.213,-56.185 -1.686,-42.139c0,0 39.671,-1.567 39.671,-1.567c2.03,52.958 7.685,158.846 7.685,158.846c0,0 5.667,85.373 5.667,85.373c0,0 75.46,-14.846 75.46,-14.846c-0,-0 -5.574,-81.361 -5.574,-81.361c-9.677,-158.122 -15.029,-316.479 -12.829,-474.72c0,0 2.144,-81.345 2.144,-81.345c0,-0 -75.504,-17.948 -75.504,-17.948c0,-0 -2.226,85.356 -2.226,85.356c-0,0 0.008,139.756 0.008,139.756c0,0 -39.675,-3.67 -39.675,-3.67c-0,-0.001 0.027,-143.328 0.027,-143.328c-0,0 2.27,-87.439 2.27,-87.439c-0,0 -76.132,-17.64 -76.132,-17.64Z" style="fill:#f2f2f2;fill-rule:nonzero;stroke:#fff;stroke-width:2.71px;"/><path d="M1913.65,10440.7c0,0 -1.825,62.652 -1.825,62.652c0,0 -0.229,14.34 -0.229,14.34c-2.062,149.282 3.291,298.675 12.792,447.833c0.63,9.879 8.477,76.395 42.974,69.637c0,0 28.814,-5.63 28.814,-5.63c17.908,-3.488 21.36,-15.616 25.635,-25.764l0.571,-1.356c0.001,-0 25.389,-69.542 25.389,-69.542c0,0 36.075,61.034 36.075,61.034l2.352,2.576c5.772,6.291 13.112,13.238 26.331,10.756c0,0 29.465,-5.497 29.465,-5.497c35.18,-6.521 35.064,-54.544 33.84,-71.254c-8.957,-122.494 -14.324,-245.217 -12.684,-367.847c0,0 1.783,-64.081 1.783,-64.081c0,-0 -77.729,-17.332 -77.729,-17.332c-0,0 -1.866,67.943 -1.866,67.943c-0.783,57.354 0.056,114.716 1.767,172.061c0.854,28.598 4.547,114.377 3.245,85.785c0,0 -24.387,-51.454 -24.387,-51.454l-2.228,-3.544c-4.442,-7.086 -10.521,-19.196 -25.593,-19.635c-20.127,-0.587 -22.318,14.368 -26.386,24.004l-0.607,1.44c-0,0 -19.091,52.933 -19.091,52.933c-2.632,-61.661 -4.421,-123.338 -5.054,-185.019c-0.322,-31.398 0.529,-125.592 0.095,-94.195c-0,0 1.972,-73.006 1.972,-73.006c0,-0 -75.421,-17.838 -75.421,-17.838Z" style="fill:#f2f2f2;fill-rule:nonzero;stroke:#fff;stroke-width:2.71px;"/><path d="M2348.39,10536.4c-15.229,-2.926 -22.477,2.17 -29.683,10.261c-0,0 -62.993,83.3 -62.992,83.3c-10.053,15.364 -11.28,29.953 -10.934,46.441c-0,0 4.873,130.674 4.873,130.674c0.859,16.438 3.401,31.253 14.034,46.4l-1.493,-2.253c0,0 70.566,99.491 70.566,99.491l0.794,0.857c8.063,8.687 13.932,14.236 30.816,11.512c0,0 98.752,-15.302 98.752,-15.302c0,-0 -9.214,-106.787 -9.214,-106.787c0,-0 -80.199,5.324 -80.199,5.324c-0,-0 -27.047,-39.44 -27.047,-39.44c-0,-0 88.571,-2.955 88.571,-2.955c-0,0 -5.102,-117.103 -5.102,-117.103c0,0 -85.128,-6.193 -85.128,-6.193c-0,0 19.069,-27.051 19.069,-27.051c-0,-0 81.704,7.775 81.704,7.775c-0,0 1.408,-106.775 1.408,-106.775c0,-0 -98.796,-18.176 -98.795,-18.176Z" style="fill:#f2f2f2;fill-rule:nonzero;stroke:#fff;stroke-width:2.71px;"/><path d="M2649.58,10586.5c-15.011,-2.105 -23.867,0.697 -33.135,8.25c-0,0 -69.772,65.589 -69.772,65.589c-11.006,11.815 -12.509,22.68 -12.124,36.207c0.473,16.499 4.592,30.825 20.685,44.175l0.435,0.361c0,-0 92.784,65.481 92.784,65.481c0,-0 -14.521,23.618 -14.521,23.618c-0,0 -47.303,2.667 -47.303,2.667c0,-0 -44.583,2.619 -44.583,2.619c-0,-0 9.058,99.724 9.058,99.724c-0,0 44.506,-5.941 44.506,-5.941c0,-0 69.837,-8.777 69.837,-8.777c13.461,-1.627 21.877,-6.839 29.365,-13.703l2.407,-2.203c0,-0 66.876,-82.602 66.876,-82.602c9.43,-9.776 11.428,-18.61 10.549,-29.911c-1.191,-15.349 -7.477,-28.008 -26.87,-38.054l2.403,1.338c-0,0 -93.258,-61.503 -93.258,-61.503c-0,-0 12.687,-14.286 12.687,-14.286c0,-0 50.958,3.523 50.958,3.523c-0,-0 48.576,3.143 48.576,3.143c-0,0 0.916,-84.084 0.916,-84.084c0,0 -48.506,-5.992 -48.506,-5.992c0,-0 -71.97,-9.639 -71.97,-9.639Z" style="fill:#f2f2f2;fill-rule:nonzero;stroke:#fff;stroke-width:2.71px;"/><path d="M2869.16,10613.2c-0,-0 -1.025,32.011 -1.025,32.011c-0,-0 0.249,46.848 0.249,46.848c0,-0 51.418,2.67 51.418,2.67c-0,0 27.492,1.339 27.492,1.339c0,0 12.091,156.835 12.091,156.835c-0,0 4.375,37.454 4.375,37.454c0,-0 108.202,-8.189 108.202,-8.189c0,-0 -4.287,-35.648 -4.287,-35.648c0,0 -12.02,-145.758 -12.02,-145.758c-0,-0 29.122,1.107 29.122,1.107c-0,-0 56.772,1.978 56.772,1.978c-0,-0 0.413,-68.345 0.413,-68.345c0,0 -56.7,-3.722 -56.7,-3.722c0,0 -74.146,-5.57 -74.146,-5.57c-0,-0 -19.289,-1.584 -19.289,-1.584c-0,-0 -71.321,-6.354 -71.321,-6.354c0,0 -51.346,-5.072 -51.346,-5.072Z" style="fill:#f2f2f2;fill-rule:nonzero;stroke:#fff;stroke-width:2.71px;"/></g></svg>